{"glyphs":{"0":{"ha":1061,"x_min":38,"x_max":1021,"o":"m 42 1083 q 260 936 71 1071 l 256 958 l 264 958 l 638 697 l 629 663 l 625 657 l 621 663 q 38 1075 64 1044 l 38 1079 l 42 1083 m 286 858 l 281 879 l 290 879 l 560 692 q 725 536 653 631 l 725 532 l 717 532 l 64 989 l 64 997 l 72 1006 l 76 1006 l 286 858 m 311 779 l 307 801 l 307 806 q 682 540 621 592 l 617 549 q 85 918 599 549 l 94 928 l 103 928 l 311 779 m 115 853 q 333 706 126 853 l 329 728 l 338 728 l 576 553 l 556 532 l 547 532 l 111 836 l 111 849 l 115 853 m 138 775 q 360 626 163 769 l 356 649 l 364 649 q 542 518 536 529 l 521 492 l 138 757 l 138 775 m 164 697 q 381 553 179 697 l 381 575 q 460 518 453 531 q 529 432 529 490 l 521 432 l 160 688 l 160 692 l 164 697 m 943 467 l 929 418 q 986 388 929 406 l 978 340 l 947 344 l 908 344 q 890 296 901 308 l 764 349 l 760 349 l 833 265 l 833 261 l 594 257 l 594 253 l 917 44 l 978 49 q 1021 14 992 49 l 1021 10 l 943 0 q 85 567 776 101 l 90 567 l 121 557 q 538 292 147 557 l 542 292 l 542 301 q 682 326 542 313 l 542 453 q 594 526 542 464 q 803 492 651 526 l 656 649 l 672 671 l 943 467 z "},"1":{"ha":846,"x_min":25,"x_max":792,"o":"m 103 1082 l 119 1082 q 181 1021 181 1069 l 181 1004 q 97 943 181 946 q 281 776 221 785 l 331 749 l 347 754 l 331 849 l 386 871 l 431 776 q 786 838 472 793 l 792 832 l 792 782 q 514 710 792 768 l 514 704 q 586 476 514 583 l 658 371 q 631 71 649 71 l 586 71 q 575 88 575 71 l 569 349 l 514 404 l 514 238 l 508 232 l 508 226 q 236 332 258 315 l 247 382 l 425 343 l 425 349 q 308 671 425 421 q 119 832 176 739 l 42 943 q 64 960 42 957 q 42 1004 42 983 l 42 1010 q 103 1082 51 1082 m 113 1099 q 174 1074 149 1099 q 199 1013 199 1049 q 174 951 199 976 q 113 926 149 926 q 51 951 76 926 q 25 1013 25 976 q 51 1074 25 1049 q 113 1099 76 1099 z "},"2":{"ha":1442,"x_min":50,"x_max":1361,"o":"m 311 972 l 350 972 q 439 867 417 972 l 433 828 l 639 739 l 722 750 l 672 817 l 711 856 l 717 856 l 783 800 l 844 850 l 1006 861 l 1189 744 l 1189 739 q 1161 700 1189 700 l 994 789 l 894 772 q 1044 461 960 685 q 1150 339 1107 339 q 1361 256 1357 265 l 1361 250 q 1339 200 1350 200 q 1039 294 1039 274 q 933 422 949 422 l 761 350 q 628 117 644 117 q 583 144 583 136 q 722 433 690 433 l 867 522 q 717 661 867 554 q 494 756 606 661 q 411 800 485 779 q 339 761 388 761 l 322 761 q 222 867 243 761 q 311 972 247 972 m 250 867 q 328 789 263 789 l 344 789 q 411 867 400 789 q 344 944 401 944 l 317 944 q 250 867 267 944 m 72 817 l 94 817 l 117 794 l 117 772 l 94 750 l 72 750 l 50 772 l 50 794 l 72 817 z "},"3":{"ha":1250,"x_min":28,"x_max":1111,"o":"m 594 772 q 728 650 728 674 l 733 572 l 828 594 l 850 539 q 739 494 807 514 l 739 461 l 733 461 l 628 500 l 411 467 q 322 511 365 511 l 322 517 q 628 639 532 639 l 628 644 l 572 700 l 394 667 l 383 711 q 594 772 403 728 m 322 506 l 428 450 l 639 483 l 739 439 l 894 483 q 1111 433 1111 447 l 1111 411 l 894 450 l 733 400 l 628 450 l 417 417 q 311 467 332 467 l 61 428 l 56 433 l 56 456 q 322 506 56 468 m 306 444 l 417 389 l 622 422 l 722 372 l 883 422 q 1100 372 1100 383 l 1100 367 l 1089 344 l 883 389 l 717 339 l 617 389 l 411 350 l 300 406 l 50 367 l 39 383 l 39 389 q 306 444 39 404 m 300 378 q 406 328 389 328 l 606 361 l 711 311 l 867 361 l 1083 317 l 1083 294 l 1072 283 l 861 322 l 700 278 l 600 322 l 394 289 l 289 344 l 33 306 l 28 311 l 28 328 q 300 378 28 346 z "},"4":{"ha":1210,"x_min":103,"x_max":1076,"o":"m 749 1142 q 644 600 644 649 l 649 600 l 690 583 q 1018 747 829 664 l 1035 706 q 724 483 817 589 l 724 479 l 778 407 l 749 369 l 669 424 l 669 282 l 690 101 l 1068 101 l 1076 93 l 1076 85 l 1068 75 l 174 75 l 165 85 l 165 93 l 174 101 l 640 101 q 581 415 603 274 q 510 475 529 450 l 510 625 q 111 579 304 596 q 103 625 103 596 q 371 676 103 638 q 564 756 560 747 q 711 1150 619 931 l 749 1142 z "},"5":{"ha":1250,"x_min":46,"x_max":1185,"o":"m 718 1111 l 785 1072 l 718 939 q 790 828 790 900 q 874 411 790 700 l 874 400 l 840 394 q 1035 178 1019 178 q 1185 128 1158 178 l 1185 122 l 1174 111 l 1146 111 l 1046 106 q 829 300 982 106 q 529 633 529 622 l 524 633 q 479 256 496 256 l 240 289 l 107 122 l 96 122 q 46 161 47 153 l 129 300 l 74 311 l 79 367 l 79 394 l 179 394 q 329 728 206 422 l 374 800 l 285 994 l 551 1083 l 618 1022 l 624 1022 l 718 1111 m 401 928 l 418 878 l 457 933 l 457 939 l 401 928 m 563 667 l 796 439 l 796 444 q 690 783 690 708 l 685 783 l 563 667 m 368 478 l 318 383 l 379 383 l 379 450 l 374 478 l 368 478 m 951 133 q 1001 78 1001 117 q 968 33 1001 57 l 946 33 q 901 67 915 33 l 901 83 q 951 133 910 133 z "},"6":{"ha":1213,"x_min":139,"x_max":1001,"o":"m 414 1111 l 451 1111 q 494 1050 494 1089 q 451 997 483 997 l 514 828 l 489 704 l 489 581 l 485 563 l 489 557 l 489 553 q 447 264 458 264 q 243 231 447 254 q 163 168 178 168 l 139 201 q 333 443 307 365 l 367 496 q 324 651 367 543 l 319 651 q 247 557 247 593 q 219 419 235 419 l 196 419 l 186 429 q 219 638 186 638 q 324 738 289 738 l 353 742 l 324 828 q 371 851 324 838 l 418 761 l 428 761 l 451 832 l 400 1003 q 371 1054 371 1024 q 414 1111 371 1088 m 675 950 l 679 946 l 683 946 q 650 804 658 804 l 565 804 q 532 946 550 804 l 538 950 l 675 950 m 713 950 l 750 936 l 713 775 l 740 704 l 750 704 l 788 794 l 840 785 l 840 775 l 817 690 q 911 643 886 690 q 988 510 988 588 l 1001 386 l 988 376 l 958 376 q 901 567 929 567 l 854 600 l 850 600 q 788 197 821 521 l 803 17 l 788 7 l 764 7 q 713 244 747 7 l 713 335 l 646 288 l 717 117 l 717 111 l 675 93 q 551 321 569 271 q 689 433 564 321 l 699 476 q 650 765 683 685 l 713 950 m 565 917 l 565 913 q 585 832 574 832 l 636 832 l 650 917 l 565 917 m 376 358 l 338 306 l 381 311 l 381 358 l 376 358 z "},"7":{"ha":1497,"x_min":13,"x_max":1429,"o":"m 467 886 q 583 819 467 871 l 831 864 l 961 797 l 1161 864 q 1429 797 1413 813 l 1429 775 l 1422 768 l 1422 761 l 1154 813 l 954 753 l 831 813 l 576 768 l 446 842 l 129 790 l 115 813 l 115 819 q 467 886 115 844 m 439 804 l 563 731 q 824 775 768 775 l 947 717 q 1154 775 1115 775 q 1415 710 1415 731 l 1394 679 l 1140 731 q 933 672 968 672 l 810 731 l 556 688 l 425 761 l 108 710 l 101 717 l 101 753 l 439 804 m 418 724 l 542 650 l 810 694 l 933 636 l 1126 694 l 1394 643 l 1394 614 l 1381 599 l 1119 650 l 928 583 l 796 650 l 535 606 l 411 679 q 88 636 207 636 l 82 665 l 418 724 m 376 650 l 508 576 l 763 621 q 900 563 876 563 l 1092 621 q 1360 554 1360 569 l 1360 547 l 1354 525 q 1092 576 1296 525 l 886 511 l 763 576 q 501 532 556 532 l 369 599 l 54 547 l 47 554 l 47 592 l 376 650 m 364 563 l 494 496 l 749 540 l 872 474 l 1072 540 q 1340 474 1340 486 l 1340 451 l 1333 444 l 1333 438 l 1065 489 l 865 429 q 735 489 758 489 l 488 444 l 357 518 l 40 467 l 26 489 l 26 496 q 364 563 26 521 m 350 481 q 481 415 460 415 l 728 458 l 858 393 q 1058 451 1025 451 q 1326 385 1326 410 l 1313 356 l 1051 407 l 844 349 l 721 407 l 467 364 l 336 438 l 19 385 l 13 393 l 13 415 q 350 481 13 439 z "},"8":{"ha":843,"x_min":36,"x_max":808,"o":"m 297 836 l 807 836 l 808 831 l 789 764 l 597 764 l 596 769 l 608 806 l 304 806 l 294 818 l 293 825 l 297 836 m 246 739 l 776 739 l 778 733 l 758 667 l 546 667 l 544 672 l 556 703 l 254 703 l 244 715 l 242 728 l 246 739 m 194 642 l 746 642 l 747 636 l 717 575 l 718 569 l 494 569 l 493 575 q 506 600 494 600 l 504 606 l 203 606 l 193 618 l 190 629 l 194 642 m 143 544 l 717 544 l 718 539 q 699 472 707 479 l 443 472 l 442 478 q 454 501 443 501 l 453 508 l 151 508 l 142 521 l 139 532 l 143 544 m 92 447 l 686 447 l 688 442 q 668 374 682 396 l 389 374 l 386 386 l 399 404 l 403 404 l 401 411 l 100 411 l 90 422 l 88 435 l 92 447 m 40 350 l 656 350 l 657 344 q 638 276 651 299 l 338 276 l 335 289 q 346 314 344 289 l 49 314 l 39 325 l 36 338 l 40 350 z "},"9":{"ha":1571,"x_min":33,"x_max":1528,"o":"m 660 1149 l 676 1132 l 660 1115 l 668 1115 l 692 1132 l 700 1124 l 700 1115 q 660 999 674 1079 l 644 999 l 644 990 l 651 965 l 539 849 l 515 874 l 524 999 l 515 999 l 492 982 l 483 1015 l 435 965 l 426 974 l 426 982 l 443 1007 l 435 1032 q 588 1099 483 1075 q 660 1149 615 1149 m 1022 1024 l 1029 1024 l 1046 1007 l 1014 982 l 997 999 l 1022 1024 m 853 1007 l 869 1007 q 925 932 890 997 l 933 924 l 942 924 q 982 957 958 957 l 989 965 l 997 957 l 997 949 l 1014 949 l 1029 965 l 1069 957 q 1150 999 1113 999 q 1360 815 1224 888 q 1528 624 1528 654 q 1447 657 1506 647 q 1392 715 1447 696 q 1360 624 1392 649 l 1360 615 l 1335 615 l 1335 632 q 1311 574 1322 632 q 1247 482 1271 556 l 1207 474 q 1182 565 1182 514 l 1118 474 q 1046 582 1064 578 l 1006 599 l 1006 582 q 1029 565 1029 582 l 1029 540 q 982 507 1014 507 q 925 582 925 532 l 917 582 l 917 565 q 982 482 926 531 l 901 257 q 853 182 871 185 l 844 182 q 797 357 797 251 l 804 399 q 789 440 789 399 l 764 440 l 708 432 q 651 532 663 482 q 749 674 651 611 l 781 674 l 821 640 l 901 640 l 901 665 q 876 682 876 665 q 917 707 876 704 l 901 724 l 885 724 q 844 674 885 697 l 821 724 l 797 724 q 781 699 781 724 l 772 690 l 740 690 l 725 707 l 725 740 q 844 840 807 840 q 901 874 863 874 l 901 890 l 861 890 l 853 899 l 844 899 q 821 849 836 849 l 804 849 q 772 915 782 849 l 853 1007 m 419 932 l 451 932 q 483 874 483 918 l 483 840 l 475 832 l 507 749 q 411 640 467 749 q 394 615 394 640 l 388 607 l 379 607 l 388 565 l 388 557 l 371 557 l 339 582 l 314 582 l 299 565 l 299 557 l 307 549 l 307 540 l 314 549 l 331 549 q 363 490 331 528 l 419 499 q 532 415 532 485 q 588 365 568 401 l 588 299 q 507 124 533 299 l 539 57 l 532 57 q 411 349 475 81 q 363 432 363 394 l 363 474 q 201 549 254 540 q 163 657 163 618 l 163 674 q 33 599 114 674 l 33 615 q 267 807 90 733 q 322 865 267 856 l 331 857 l 331 849 l 322 840 l 331 840 q 371 890 342 875 q 403 874 371 874 l 411 865 l 411 857 q 339 765 363 818 l 371 765 q 403 815 385 765 l 426 815 l 435 807 q 467 832 467 819 q 419 865 419 851 l 435 882 l 435 890 q 394 907 394 890 l 419 932 m 644 932 l 651 924 l 660 924 l 668 932 l 676 932 l 685 924 l 685 915 l 668 899 l 644 899 l 628 915 l 644 932 m 757 874 l 772 849 l 772 832 q 749 782 772 789 q 732 815 732 782 l 725 807 l 717 807 l 700 824 l 757 874 m 1439 632 l 1439 624 l 1415 599 l 1392 599 l 1392 607 q 1439 632 1399 632 m 371 540 l 388 540 l 411 532 l 411 515 l 403 515 q 371 540 371 528 m 1303 490 l 1319 490 l 1319 482 l 1294 449 l 1271 449 l 1271 457 l 1303 490 m 1392 474 l 1432 474 l 1432 465 l 1415 432 l 1424 390 l 1351 315 l 1335 315 l 1326 324 l 1254 282 l 1247 290 l 1247 299 q 1375 432 1247 367 l 1383 432 l 1392 424 l 1399 432 l 1399 449 l 1375 449 l 1375 457 l 1392 474 m 1222 457 l 1247 424 l 1247 407 l 1239 407 l 1207 449 l 1214 457 l 1222 457 m 1472 424 l 1488 424 l 1472 407 l 1472 424 m 974 357 l 982 349 q 949 257 974 257 l 933 274 q 974 357 949 351 z "}," ":{"ha":1593,"x_min":139,"x_max":1404,"o":"m 204 1171 l 208 1175 q 447 1035 425 1060 q 543 796 485 925 l 822 792 q 992 714 990 719 l 992 710 l 918 544 l 910 544 l 765 647 l 753 647 q 621 619 739 639 l 436 626 q 365 924 382 829 l 164 899 l 139 1056 l 143 1056 q 197 1010 197 1056 l 197 1001 q 399 957 399 972 q 468 681 460 681 l 732 647 l 744 647 l 744 651 q 481 701 481 690 l 407 985 q 208 1026 208 1014 l 204 1171 m 918 911 l 929 911 q 1057 858 954 911 l 1057 854 l 1000 739 q 860 842 860 789 l 860 854 q 918 911 876 911 m 1086 842 l 1090 842 q 1235 735 1235 796 q 1168 668 1226 668 q 1042 718 1150 668 l 1042 722 l 1086 842 m 1025 697 q 1206 622 1046 697 q 1272 594 1206 603 q 1379 553 1374 564 l 1388 492 l 1251 492 l 1404 42 l 1358 33 l 1172 413 l 1099 404 q 950 519 950 513 l 1025 697 z "},"!":{"ha":1354,"x_min":33,"x_max":1328,"o":"m 788 1104 l 788 1111 l 833 1111 q 1107 724 1019 1001 l 1128 643 l 1221 669 l 1328 636 l 1328 624 l 1214 590 l 1128 617 l 1128 531 q 901 56 1128 260 l 861 56 l 594 383 l 594 303 l 667 117 l 374 117 l 367 122 l 360 122 l 381 196 q 300 457 310 457 l 47 457 l 33 469 l 33 536 q 367 610 33 567 l 367 736 q 447 769 367 756 l 493 624 q 794 1076 522 650 l 807 1076 l 807 1057 l 540 636 l 540 631 l 561 636 l 1068 617 q 914 983 1043 819 l 788 1104 m 600 517 l 594 510 l 594 429 l 868 83 q 1068 536 1068 281 l 1068 543 l 600 517 z "},"\"":{"ha":1061,"x_min":115,"x_max":939,"o":"m 600 1117 q 939 1019 910 1033 l 672 611 l 664 251 l 699 1 l 646 1 q 556 350 632 1 l 510 564 l 281 604 l 157 601 l 153 604 l 168 681 l 115 946 l 179 964 l 210 888 q 533 1096 310 974 l 571 1092 l 571 1088 q 281 863 557 1071 l 276 860 l 276 856 q 424 914 319 856 q 661 1031 639 1024 l 679 1008 l 679 1001 l 360 793 l 360 786 l 450 743 l 454 743 l 619 917 l 626 917 l 626 831 l 804 975 l 578 1092 q 600 1117 589 1117 z "},"#":{"ha":1865,"x_min":0,"x_max":1843,"o":"m 1106 1154 l 1290 997 l 1311 965 q 1478 1015 1463 1015 q 1524 935 1524 946 l 1385 847 l 1385 843 l 1440 746 l 1293 626 l 1328 603 q 1517 661 1422 661 q 1811 472 1707 661 q 1843 340 1843 411 l 1843 315 q 1665 36 1843 143 q 1531 1 1596 1 l 1503 1 q 1224 179 1331 1 q 1189 315 1189 249 l 1189 343 q 1203 431 1189 386 l 1200 431 l 879 301 q 849 368 849 354 l 849 371 l 1075 493 l 1075 497 q 943 594 954 594 l 943 592 q 897 486 904 490 l 824 444 q 844 329 844 382 q 657 32 844 136 q 525 1 596 1 l 501 1 q 233 161 344 1 q 188 329 188 242 l 188 336 q 389 638 188 529 q 518 661 468 661 q 765 546 656 661 l 768 546 q 810 613 810 565 q 872 843 863 831 l 1172 951 l 1092 1043 l 897 921 l 886 921 l 858 965 l 858 972 l 1106 1154 m 393 1126 l 1022 1126 l 1022 1124 l 950 1067 l 689 1067 l 682 1074 l 706 1099 l 393 1099 l 386 1106 l 386 1119 l 393 1126 m 317 1053 l 922 1053 l 922 1050 q 849 993 918 1042 l 608 993 l 608 997 l 633 1025 l 317 1025 l 310 1032 l 310 1046 l 317 1053 m 240 976 l 821 976 l 821 969 q 761 928 813 969 l 765 917 l 529 917 l 529 921 l 553 949 l 240 949 l 233 956 l 233 969 l 240 976 m 160 899 l 789 899 l 817 871 q 807 843 815 843 l 451 843 l 451 847 l 476 875 l 160 875 l 153 882 l 153 892 l 160 899 m 83 826 l 803 826 q 810 815 810 826 q 800 767 810 767 l 372 767 l 372 769 l 396 797 l 83 797 l 76 806 l 76 819 l 83 826 m 7 749 l 796 749 l 800 746 l 803 746 q 793 693 801 693 l 296 693 l 296 696 l 319 725 l 7 725 l 0 732 l 0 742 l 7 749 m 1054 700 l 1231 501 l 1231 497 q 1265 550 1265 542 q 1158 626 1169 611 q 1249 725 1201 667 l 1054 700 m 233 336 l 233 329 q 451 50 233 125 l 515 43 q 786 239 700 43 q 800 329 800 289 q 782 417 796 414 l 546 274 l 539 274 q 494 347 494 331 q 731 522 707 497 q 515 617 632 617 q 243 414 325 617 q 233 336 233 369 m 1367 574 l 1367 571 l 1454 497 l 1415 449 l 1304 522 q 1263 451 1271 481 q 1231 333 1231 396 q 1440 53 1231 135 l 1517 43 q 1763 189 1671 43 q 1801 329 1801 263 q 1614 599 1801 513 q 1519 617 1557 617 q 1367 574 1444 617 z "},"$":{"ha":1036,"x_min":67,"x_max":906,"o":"m 511 1111 l 761 1072 l 750 1017 l 522 1033 l 422 967 q 689 761 546 888 l 694 756 l 678 533 l 856 672 q 906 617 869 668 l 589 350 l 578 350 q 561 600 567 414 l 67 572 l 67 622 q 244 656 67 639 l 244 661 q 83 689 83 675 l 83 722 q 144 739 83 739 l 200 739 q 256 856 244 801 l 161 906 l 183 967 l 189 967 q 294 933 218 967 q 361 1033 318 1033 q 511 1111 485 1111 m 317 756 l 256 667 l 256 661 l 506 694 q 317 756 506 711 m 272 467 l 294 467 l 306 456 l 306 378 l 294 361 l 294 44 l 283 33 l 272 44 l 272 361 l 261 378 l 261 456 l 272 467 z "},"%":{"ha":1457,"x_min":58,"x_max":1417,"o":"m 624 944 l 693 857 q 763 899 750 899 l 910 614 l 956 392 l 1417 389 l 1417 385 l 1240 319 l 1163 344 q 963 285 983 285 l 944 285 l 835 344 l 757 331 l 757 328 l 811 307 l 838 310 l 958 253 l 1144 310 l 1400 258 q 1390 224 1396 224 l 1142 272 q 953 215 965 215 l 832 272 l 586 232 l 467 296 l 163 249 l 154 282 q 472 333 244 301 l 592 269 q 747 299 747 293 l 699 319 l 576 299 l 478 379 l 203 315 q 58 397 68 388 l 58 400 l 104 397 l 397 397 l 435 451 l 344 490 q 325 483 335 483 l 278 528 q 304 553 290 553 l 554 768 q 606 806 606 799 l 560 918 q 624 944 613 944 m 379 515 l 379 513 q 456 481 443 481 l 544 597 l 672 560 l 672 563 l 597 678 q 379 515 439 564 m 579 496 l 525 443 l 525 440 l 629 394 l 765 394 l 765 397 l 579 496 m 496 417 l 478 394 l 544 394 l 544 397 l 496 417 m 453 261 l 576 197 l 819 238 l 944 181 l 1126 238 l 1382 186 q 1374 151 1382 151 l 1128 200 l 939 142 l 814 197 l 568 157 l 450 224 l 146 176 q 139 211 142 183 l 453 261 m 440 186 l 560 122 l 806 163 l 925 107 l 1110 163 q 1365 113 1331 122 q 1358 78 1365 88 l 1113 125 l 924 69 l 800 125 l 554 85 l 432 149 l 131 101 q 122 136 125 108 q 440 186 122 140 z "},"&":{"ha":1306,"x_min":39,"x_max":1250,"o":"m 894 889 l 900 872 l 906 761 l 944 761 l 1100 711 l 1156 711 l 1239 717 l 1250 700 l 1250 694 q 1056 656 1250 671 l 950 661 q 778 456 778 478 q 689 244 699 244 q 317 172 406 224 q 183 139 232 139 l 161 139 q 39 311 39 236 l 39 322 q 61 361 39 351 q 100 306 69 360 q 178 278 143 278 l 339 283 q 544 400 544 383 q 622 644 550 500 l 617 644 l 339 539 l 333 539 l 328 561 q 678 739 646 739 q 800 772 800 753 q 844 878 811 878 l 894 889 m 128 672 l 133 672 l 161 667 l 161 644 l 128 639 l 128 672 m 189 550 l 217 550 l 217 528 l 206 517 l 200 517 l 183 528 l 189 550 m 83 522 l 111 522 l 111 500 l 100 489 l 94 489 l 78 500 l 83 522 m 261 511 l 289 511 l 289 478 q 256 494 256 483 l 261 511 m 656 489 q 594 317 622 317 l 383 261 l 383 256 l 400 250 l 633 317 q 667 483 667 440 l 661 489 l 656 489 m 200 461 l 206 461 l 206 444 l 222 456 l 228 456 l 222 450 l 228 411 l 228 400 l 222 406 l 217 406 l 211 400 l 206 400 l 200 406 l 189 394 l 167 422 l 167 428 l 178 428 l 172 456 l 178 456 l 183 450 l 189 450 l 200 461 m 289 444 l 294 439 l 300 439 l 300 444 q 322 411 322 439 l 289 411 l 289 444 m 244 383 q 267 367 267 375 l 261 350 l 239 350 l 228 361 l 228 378 l 244 383 z "},"'":{"ha":2361,"x_min":-199,"x_max":2304,"o":"m 696 1047 l 714 1051 l 792 1051 l 818 1047 l 1017 769 l 1138 793 q 1168 722 1144 793 q 1431 610 1194 699 q 1358 428 1431 583 l 1111 479 l 964 371 l 769 428 l 765 422 l 765 418 l 722 422 l 722 432 l 740 436 l 740 440 l 757 436 q 706 563 706 544 l 706 568 l 935 629 q 1051 722 969 629 l 1051 728 l 1021 765 q 847 728 858 736 q 624 621 663 644 l 624 600 q 663 521 624 578 q 731 446 682 446 l 731 436 l 710 440 l 701 440 l 701 436 l 706 432 l 688 432 l 667 446 q 536 361 653 446 l 329 465 l 108 381 q -56 432 86 381 q -199 554 -103 432 l -199 568 q 411 878 -12 681 l 403 888 q 585 985 451 926 l 585 989 l 511 1065 l 511 1069 l 554 1111 l 696 1047 m 481 858 q 329 728 426 858 l 524 694 l 788 728 l 788 732 q 718 817 733 808 q 628 915 667 817 l 481 858 m 2304 488 l 2304 440 l 1928 282 q 1781 376 1914 282 l 1574 282 l 1111 385 l 968 276 l 692 343 l 550 250 l 338 343 q 53 263 313 343 q 39 318 42 263 q 333 410 39 329 l 540 314 l 683 410 l 960 343 q 1099 451 1006 368 q 1565 347 1444 381 l 1776 440 q 1924 347 1790 440 l 2294 499 l 2304 488 m 2304 376 l 2304 325 q 1903 156 2289 308 l 1764 254 l 1553 160 q 1129 263 1524 160 l 990 150 l 706 221 l 571 122 l 351 221 l 69 140 q 57 192 60 140 q 346 282 71 208 q 567 188 365 282 q 706 282 690 282 l 982 217 l 1119 325 q 1547 221 1371 272 l 1764 318 l 1903 221 l 2304 376 m 2304 250 l 2304 203 q 1885 33 2268 179 l 1742 128 l 1531 33 l 1146 136 l 1013 28 l 731 94 l 589 0 l 368 94 l 88 14 l 74 71 l 364 160 l 585 65 l 722 160 l 999 94 q 1138 203 1008 94 l 1526 99 q 1742 192 1574 114 q 1881 99 1756 192 q 2294 258 1904 99 l 2304 250 z "},"(":{"ha":1463,"x_min":26,"x_max":1439,"o":"m 875 871 l 1004 844 l 1061 867 l 1182 656 q 1156 499 1156 549 l 1253 458 l 1253 449 l 1231 444 l 1071 463 l 1079 579 l 1004 490 l 1049 382 l 1044 378 l 1026 378 l 915 507 l 1049 660 l 1049 669 l 990 706 q 857 642 961 642 l 782 633 l 782 647 q 906 692 782 660 l 938 768 q 853 844 856 831 q 875 871 860 863 m 1156 867 l 1244 831 l 1293 844 q 1360 692 1315 811 q 1235 651 1256 651 l 1213 669 l 1267 688 l 1146 776 l 1160 808 q 1133 849 1133 824 l 1146 867 l 1156 867 m 556 857 l 649 822 l 707 835 l 835 706 q 724 664 835 693 l 689 664 q 657 629 672 654 l 663 629 l 711 647 l 715 647 q 768 525 740 525 q 942 557 803 525 l 942 553 l 885 494 q 942 436 901 436 l 960 432 l 960 422 q 751 328 778 346 l 768 292 q 964 382 921 368 l 986 350 l 275 24 l 231 82 l 231 90 l 240 100 l 285 60 q 418 149 418 122 q 618 261 418 164 q 715 315 714 307 l 711 315 l 285 126 q 67 163 67 142 l 26 225 q 311 490 283 476 q 453 557 453 538 q 538 754 521 639 l 560 790 l 529 831 q 556 857 542 857 m 596 718 q 519 575 563 626 l 529 575 q 604 638 585 590 l 640 696 l 600 718 l 596 718 m 1360 678 l 1394 593 l 1400 593 l 1431 619 l 1439 619 l 1439 601 q 1386 549 1399 549 l 1293 601 l 1257 561 l 1301 531 l 1301 521 l 1289 521 q 1200 557 1268 521 q 1306 660 1240 660 q 1360 678 1307 667 z "},")":{"ha":1083,"x_min":24,"x_max":1011,"o":"m 901 768 q 942 749 922 768 l 893 622 q 1011 517 983 557 q 986 306 999 306 l 963 306 l 963 329 l 958 329 l 954 318 q 710 363 710 344 l 650 403 l 621 375 l 511 386 q 532 318 532 353 l 511 322 l 458 4 l 454 0 l 426 13 l 431 219 q 393 424 431 396 l 194 601 l 194 606 q 381 542 274 606 l 401 561 l 446 472 l 483 472 l 483 476 q 426 553 439 476 q 321 594 426 583 q 72 675 211 614 l 24 704 l 40 719 l 292 667 l 435 675 l 442 651 l 446 651 l 426 740 l 450 749 q 540 582 503 603 l 593 525 l 661 561 l 690 533 l 665 476 q 800 371 782 371 l 963 342 q 938 500 956 500 l 865 557 l 686 492 l 686 496 l 707 565 l 682 586 q 597 542 610 542 q 568 578 597 549 l 568 586 q 699 658 568 613 l 694 671 q 551 599 551 628 l 547 599 q 519 626 519 617 l 544 663 l 544 667 l 540 667 q 499 639 511 639 l 488 683 l 511 704 l 593 688 l 694 753 l 819 704 l 901 768 m 483 574 l 483 569 l 499 538 l 483 481 l 488 481 l 507 542 q 488 574 488 560 l 483 574 m 661 386 l 665 382 l 665 379 q 642 33 656 33 l 633 33 q 604 86 604 33 q 564 329 592 329 l 544 367 l 547 371 l 547 375 l 613 363 l 661 386 z "},"*":{"ha":1275,"x_min":31,"x_max":1218,"o":"m 261 883 l 285 832 l 404 864 l 586 843 q 558 669 569 669 l 522 661 l 519 665 l 519 785 l 419 760 q 586 589 558 594 q 885 467 715 514 l 996 431 q 979 394 996 417 l 631 450 l 460 526 q 396 482 397 489 l 663 399 l 663 394 q 582 367 601 367 l 229 450 l 229 494 l 353 589 q 185 653 185 619 l 182 653 q 71 394 79 403 l 35 383 l 31 388 l 114 697 l 214 768 l 189 864 q 261 883 200 871 m 944 788 l 1118 785 l 1122 781 q 1107 764 1118 764 l 928 768 q 793 717 814 717 l 682 717 l 586 689 l 582 693 l 582 708 l 686 736 l 797 736 q 944 788 926 788 m 1083 697 l 1090 697 l 1099 689 l 1103 693 l 1111 693 l 1111 685 l 1114 685 l 1111 669 l 1090 669 l 1071 685 l 1083 697 m 1114 669 q 1126 661 1114 661 l 1126 653 l 1118 644 l 1114 649 l 1111 644 l 1107 649 l 1107 661 l 1114 669 m 983 653 l 1003 642 q 979 625 1003 631 l 972 638 l 972 649 l 983 653 m 1142 644 l 1146 644 q 1169 629 1167 644 l 1167 617 l 1163 617 l 1158 621 l 1154 621 l 1150 617 l 1150 614 l 1158 606 l 1150 597 l 1139 597 l 1139 617 l 1142 614 l 1146 614 l 1146 617 l 1139 629 l 1142 644 m 1058 621 l 1071 621 l 1079 614 l 1079 606 l 1063 606 l 1058 610 l 1056 610 l 1058 621 m 1086 589 l 1107 589 l 1107 578 l 1086 574 l 1086 569 l 1090 565 l 1086 550 l 1083 554 l 1079 550 l 1063 550 l 1063 558 l 1058 558 l 1063 561 l 1063 565 l 1058 569 l 1058 574 q 1086 589 1086 574 m 1190 565 l 1194 561 l 1197 561 l 1201 565 q 1218 554 1218 560 l 1218 542 l 1197 542 l 1190 550 l 1190 565 m 1094 531 l 1103 531 l 1111 522 l 1114 526 l 1118 526 l 1139 514 q 1111 499 1139 503 q 1086 518 1103 518 l 1086 522 l 1094 531 m 1015 490 l 1024 490 q 979 283 1024 283 l 968 279 q 917 304 917 288 l 917 315 q 992 383 917 325 q 1015 490 1004 406 m 174 450 q 249 388 211 397 l 249 379 l 238 379 q 185 415 219 379 l 165 426 l 94 394 l 90 399 l 90 411 q 174 450 94 422 m 1111 431 l 1114 426 l 1118 431 l 1122 431 q 1139 419 1139 425 l 1139 407 l 1111 403 l 1111 431 m 701 399 l 701 394 q 547 249 589 254 q 499 300 499 272 l 499 307 q 535 324 504 324 l 594 324 l 599 319 q 701 399 622 329 m 308 347 l 313 347 q 336 332 313 336 l 336 328 l 328 307 l 325 311 l 321 307 l 317 307 l 313 311 l 308 307 l 304 307 q 289 319 289 314 l 293 339 l 289 343 l 293 343 l 297 339 l 300 339 l 308 347 m 325 264 l 349 264 l 353 251 l 349 240 l 325 240 l 325 249 l 321 249 l 325 264 m 483 249 l 488 244 l 492 249 l 494 249 l 511 236 l 511 224 l 492 224 l 488 221 l 483 221 l 479 232 l 483 249 m 261 240 l 269 232 l 281 236 l 276 232 l 276 228 l 285 221 l 276 213 l 281 208 l 281 200 l 276 200 l 272 204 l 269 204 l 265 200 l 261 204 l 253 196 l 242 208 l 238 208 l 238 217 l 244 224 l 242 228 l 242 236 l 244 236 l 249 232 l 253 232 l 261 240 m 328 204 l 344 204 l 360 193 l 356 181 l 336 181 l 328 189 l 332 200 l 328 204 z "},"+":{"ha":929,"x_min":0,"x_max":906,"o":"m 617 972 l 750 911 l 839 944 l 844 944 l 906 872 l 839 811 l 856 711 l 689 639 l 578 661 l 550 639 q 606 456 606 488 l 367 0 l 361 0 l 311 17 l 456 439 q 256 283 276 283 l 22 261 l 0 311 l 222 378 l 367 594 l 367 600 l 317 778 l 511 878 l 511 883 l 394 894 l 167 839 l 161 844 l 161 867 q 617 972 353 972 z "},",":{"ha":1144,"x_min":17,"x_max":1111,"o":"m 161 1024 q 433 796 299 863 l 439 796 q 539 863 518 863 q 589 840 589 851 l 506 729 q 600 574 568 574 l 700 551 q 722 585 700 576 l 750 585 l 783 546 l 1106 535 l 1111 529 l 1111 524 l 1106 518 l 783 518 l 744 474 l 728 474 q 700 513 700 488 l 561 507 l 461 607 q 344 518 356 539 q 494 285 494 311 q 172 146 283 225 q 33 57 88 79 l 17 79 q 183 263 183 244 l 183 446 l 178 585 l 344 768 q 144 990 210 876 l 144 1007 l 161 1024 m 289 407 l 289 396 l 283 274 l 289 274 l 372 324 l 289 407 z "},"-":{"ha":1111,"x_min":86,"x_max":1064,"o":"m 1064 1121 l 1064 1013 l 1058 1007 l 960 1007 q 893 942 914 967 l 1019 814 q 1011 808 1019 808 l 1011 807 l 1019 797 l 893 672 l 972 589 l 997 611 l 1019 589 l 997 568 l 1017 544 l 1017 542 l 997 524 l 994 524 l 975 542 q 893 461 971 542 l 1019 335 l 1011 326 l 1019 318 l 893 190 l 1019 63 q 997 43 1008 49 l 994 43 l 869 167 l 867 167 q 743 42 867 163 l 618 167 l 492 42 l 367 167 l 242 43 l 239 43 l 217 63 l 342 190 l 217 318 l 224 325 l 217 335 l 342 461 l 264 542 l 242 524 l 239 524 l 219 542 l 219 544 l 239 565 l 217 589 q 239 608 233 608 q 261 589 246 608 l 342 669 l 219 794 l 219 800 l 224 807 l 219 814 l 219 817 l 342 942 q 275 1007 332 957 l 210 1007 l 210 6 l 204 1 l 92 1 l 86 6 l 86 1121 l 92 1125 l 1058 1125 l 1064 1121 m 829 1007 l 869 965 l 911 1007 l 829 1007 m 781 1007 l 704 1007 l 704 1006 l 643 942 l 740 840 l 743 840 l 847 942 l 781 1007 m 576 1007 l 618 967 l 660 1007 l 576 1007 m 529 1007 l 456 1007 l 389 943 l 492 840 l 596 942 l 529 1007 m 325 1007 l 364 965 l 408 1007 l 325 1007 m 982 804 q 869 918 957 835 q 761 807 785 836 q 869 693 783 779 l 982 804 m 726 807 q 618 918 726 814 q 510 807 515 819 q 618 696 514 794 q 726 807 722 793 m 475 807 q 367 918 457 831 l 254 807 l 364 693 q 475 807 474 797 m 643 672 l 643 669 l 721 592 l 743 611 l 765 592 l 847 669 l 746 774 l 643 672 m 492 771 l 389 672 l 468 592 l 492 611 l 514 592 l 596 669 l 492 771 m 950 565 q 869 646 910 610 l 790 568 l 790 565 l 869 485 l 950 565 m 618 646 l 536 568 l 618 485 l 699 565 l 618 646 m 367 646 l 286 565 l 364 485 l 449 565 l 367 646 m 743 521 l 721 540 q 643 461 668 492 l 743 360 q 844 461 844 456 l 768 542 l 743 521 m 492 521 l 471 542 l 392 461 q 492 360 393 456 l 593 461 l 517 542 l 492 521 m 871 438 q 761 326 801 374 q 869 214 761 321 l 982 325 l 871 438 m 729 325 q 618 438 704 356 l 507 326 l 618 214 l 729 325 m 475 326 q 367 438 471 336 l 254 326 l 364 214 q 475 326 474 317 m 743 292 l 643 190 l 743 89 l 847 190 l 743 292 m 593 190 q 492 292 592 196 q 392 190 392 196 l 492 89 l 593 190 z "},".":{"ha":1153,"x_min":63,"x_max":1069,"o":"m 549 1089 l 583 1089 q 958 903 790 1089 q 1069 603 1069 754 l 1069 567 q 885 193 1069 360 q 583 82 736 82 l 549 82 q 174 267 342 82 q 63 567 63 415 l 63 603 q 247 976 63 810 q 549 1089 396 1089 m 601 1046 l 601 1043 l 606 1043 l 606 1046 l 601 1046 m 608 1043 l 611 1042 l 611 1039 q 472 950 542 990 l 557 858 q 731 886 722 881 l 789 986 l 789 990 q 608 1043 679 1043 m 831 964 l 775 881 l 869 629 l 965 589 l 1018 678 q 911 892 996 793 q 831 964 861 943 m 225 707 q 313 604 308 604 q 414 650 410 644 l 515 858 l 431 939 l 285 888 l 225 707 m 236 910 q 114 681 135 793 l 104 618 l 104 615 l 107 615 l 200 736 l 258 883 l 236 910 m 657 496 l 657 351 q 746 282 667 339 q 943 411 931 399 l 951 554 l 840 600 q 657 496 661 503 m 325 544 l 324 400 q 471 304 447 322 l 594 333 l 604 504 l 475 593 q 325 547 326 551 l 325 544 m 943 360 l 763 253 l 757 165 l 760 165 q 960 344 886 225 q 943 360 956 353 m 189 318 q 399 153 265 210 l 450 165 q 419 275 422 275 l 301 356 l 189 318 z "},"/":{"ha":1111,"x_min":28,"x_max":1111,"o":"m 500 833 l 544 739 l 550 744 l 567 744 l 578 733 l 567 672 l 561 672 l 439 711 l 439 722 l 461 728 l 444 828 l 500 833 m 606 750 l 644 750 l 656 739 l 639 583 l 633 583 l 594 594 l 594 589 l 578 522 l 594 478 l 594 472 l 456 422 l 433 522 l 444 544 l 444 550 l 439 550 q 283 444 439 503 q 250 394 283 418 l 239 394 l 272 467 l 267 483 q 411 711 294 483 l 422 711 q 572 661 511 661 q 606 750 588 750 m 422 656 l 422 650 l 433 650 l 433 656 l 422 656 m 439 650 l 439 644 l 450 644 l 450 650 l 439 650 m 467 639 l 467 633 l 583 594 l 589 594 l 589 600 l 472 639 l 467 639 m 389 628 l 344 544 l 344 539 q 394 622 374 539 l 394 628 l 389 628 m 1017 611 q 1094 594 1085 606 q 944 372 1031 474 l 906 383 l 739 333 q 650 383 650 374 l 422 350 q 394 372 397 361 q 1017 611 885 611 m 322 389 l 428 333 l 639 367 l 739 322 l 894 367 q 1111 317 1111 331 l 1111 294 l 894 333 l 733 283 l 628 333 l 417 300 l 317 350 l 61 311 l 56 317 l 56 339 q 322 389 56 351 m 306 328 l 417 272 l 622 306 l 722 256 l 883 306 q 1100 256 1100 267 l 1100 250 l 1089 228 l 883 272 l 717 222 l 617 272 l 411 233 l 300 289 l 50 250 l 39 267 l 39 272 q 306 328 39 288 m 300 261 q 406 211 389 211 l 606 244 l 711 194 l 867 244 l 1083 200 l 1083 178 l 1072 167 l 861 206 l 700 161 l 600 206 l 394 172 l 289 228 l 33 189 l 28 194 l 28 211 q 300 261 28 231 z "},":":{"ha":740,"x_min":0,"x_max":678,"o":"m 33 983 l 39 983 q 128 839 49 983 q 239 772 207 772 l 300 767 q 356 850 338 842 q 433 794 433 842 q 478 683 433 711 q 583 622 560 622 l 633 694 q 678 661 678 678 q 617 533 633 533 q 439 478 496 533 q 411 389 411 478 q 228 239 244 239 l 228 244 q 306 472 258 422 l 278 494 l 161 0 l 128 0 l 117 11 l 128 472 l 128 556 l 183 644 l 183 650 q 33 861 63 760 l 0 972 l 33 983 z "},";":{"ha":1206,"x_min":0,"x_max":1150,"o":"m 944 700 l 1039 656 l 1106 683 l 1150 628 l 1100 583 l 1117 517 l 994 456 q 917 472 949 472 l 900 461 q 939 333 904 424 q 761 0 806 67 l 728 6 q 828 311 728 35 l 822 311 q 661 200 704 200 l 517 189 l 500 222 l 667 278 l 767 433 l 728 561 q 856 633 851 622 l 783 644 l 622 606 l 617 611 l 617 622 q 944 700 740 700 m 394 661 l 472 622 l 539 644 l 578 594 l 533 556 l 550 494 l 439 444 l 378 461 q 356 439 356 456 l 389 322 l 228 33 q 200 50 200 40 l 289 311 l 283 311 q 161 217 178 217 l 17 200 l 0 239 q 167 322 167 274 q 233 428 233 413 l 200 533 l 317 594 l 317 600 l 256 611 q 100 578 138 578 l 100 589 q 267 650 100 610 l 394 661 z "},"<":{"ha":1051,"x_min":29,"x_max":1000,"o":"m 324 1160 q 626 796 478 968 l 644 786 l 642 783 l 642 775 l 653 763 q 629 744 647 751 l 594 665 l 718 633 q 738 699 731 633 q 792 707 747 704 q 800 631 797 696 l 818 631 l 932 683 q 888 778 897 767 l 888 783 l 908 815 l 915 815 q 1000 663 996 685 q 865 544 867 551 l 844 418 q 897 239 897 251 l 771 86 l 724 86 l 724 92 l 815 242 l 776 363 l 774 363 q 756 207 768 207 q 639 36 647 40 l 608 51 l 608 54 q 692 239 608 63 q 647 560 653 544 q 518 636 547 615 q 597 786 576 756 l 303 1142 l 303 1144 q 324 1160 314 1160 m 297 1133 l 464 933 l 464 928 q 344 844 406 928 q 197 710 315 765 l 192 710 l 29 910 q 167 1031 153 983 q 297 1133 213 1108 z "},"=":{"ha":1571,"x_min":67,"x_max":1578,"o":"m 76 1161 q 935 436 536 783 l 935 431 l 925 407 q 815 489 906 407 l 360 878 l 360 882 l 379 882 l 67 1151 l 76 1161 m 158 1156 q 960 479 879 558 q 940 450 947 450 l 440 872 l 440 878 l 460 878 l 149 1146 l 158 1156 m 239 1151 l 244 1151 l 983 528 q 960 493 971 496 l 522 868 l 522 872 l 542 872 l 229 1142 l 239 1151 m 321 1146 l 326 1146 q 950 618 739 806 l 940 604 l 978 551 l 974 551 l 604 863 l 604 868 l 628 868 l 628 872 q 311 1136 617 874 l 321 1146 m 407 1146 l 1050 599 l 1050 589 l 1046 589 q 968 633 1028 589 l 954 628 q 686 853 744 814 l 686 863 l 710 863 l 393 1136 l 407 1146 m 489 1142 l 1103 618 q 1065 599 1103 608 l 767 858 l 792 858 l 479 1126 l 479 1132 l 489 1142 m 1013 599 q 1060 565 1013 590 l 1146 599 q 1390 321 1314 426 l 1390 317 l 1382 307 l 1376 307 q 1218 450 1242 440 l 1218 446 l 1578 81 l 1558 67 q 1324 244 1431 151 l 1531 14 l 1515 0 q 1142 307 1372 110 l 1108 331 l 1108 325 q 1267 172 1143 282 l 1247 153 q 954 393 1131 231 q 1017 528 954 407 l 978 575 q 1013 599 993 599 z "},">":{"ha":1054,"x_min":63,"x_max":1069,"o":"m 549 1089 l 583 1089 q 958 903 790 1089 q 1069 603 1069 754 l 1069 567 q 885 193 1069 360 q 583 82 736 82 l 549 82 q 174 267 342 82 q 63 567 63 415 l 63 603 q 247 976 63 810 q 549 1089 396 1089 m 601 1046 l 601 1043 l 606 1043 l 606 1046 l 601 1046 m 608 1043 l 611 1042 l 611 1039 q 472 950 542 990 l 557 858 q 731 886 722 881 l 789 986 l 789 990 q 608 1043 679 1043 m 831 964 l 775 881 l 869 629 l 965 589 l 1018 678 q 911 892 996 793 q 831 964 861 943 m 225 707 q 313 604 308 604 q 414 650 410 644 l 515 858 l 431 939 l 285 888 l 225 707 m 236 910 q 114 681 135 793 l 104 618 l 104 615 l 107 615 l 200 736 l 258 883 l 236 910 m 657 496 l 657 351 q 746 282 667 339 q 943 411 931 399 l 951 554 l 840 600 q 657 496 661 503 m 325 544 l 324 400 q 471 304 447 322 l 594 333 l 604 504 l 475 593 q 325 547 326 551 l 325 544 m 943 360 l 763 253 l 757 165 l 760 165 q 960 344 886 225 q 943 360 956 353 m 189 318 q 399 153 265 210 l 450 165 q 419 275 422 275 l 301 356 l 189 318 z "},"?":{"ha":1564,"x_min":53,"x_max":1503,"o":"m 60 1111 l 1496 1111 l 1503 1104 l 1503 74 l 1496 68 l 60 68 l 53 74 l 53 1104 l 60 1111 m 92 1071 l 92 926 l 282 926 q 292 901 292 925 l 292 717 q 404 625 364 717 l 410 599 l 410 567 q 318 454 410 500 q 292 444 292 451 l 292 258 l 286 251 l 92 251 l 92 107 l 758 107 l 758 376 q 594 481 671 376 q 564 589 564 526 q 713 793 564 731 l 758 803 l 758 1071 l 92 1071 m 797 1071 l 797 803 q 961 697 885 803 q 992 589 992 651 q 843 386 992 447 l 797 376 l 797 107 l 1464 107 l 1464 251 l 1279 251 l 1274 258 l 1274 444 q 1228 461 1274 450 q 1151 586 1151 510 q 1260 717 1151 676 l 1274 717 l 1274 921 l 1279 926 l 1464 926 l 1464 1071 l 797 1071 m 1467 924 l 1467 904 l 1476 904 l 1476 924 l 1467 924 m 92 901 l 92 803 l 200 803 l 207 796 l 207 382 l 200 376 l 92 376 l 92 278 l 269 278 l 269 901 l 92 901 m 1296 901 l 1296 278 l 1464 278 l 1464 376 l 1365 376 l 1358 382 l 1358 796 l 1365 803 l 1464 803 l 1464 901 l 1296 901 m 1467 799 l 1467 779 l 1476 779 l 1476 799 l 1467 799 m 92 776 l 92 403 l 181 403 l 181 776 l 92 776 m 1382 776 l 1382 403 l 1464 403 l 1464 776 l 1382 776 m 604 593 l 604 586 q 729 422 604 471 l 758 415 l 758 763 q 633 688 697 763 q 604 593 604 640 m 797 763 l 797 415 q 922 490 858 415 q 951 586 951 538 l 951 593 q 826 757 951 708 l 797 763 m 292 690 l 292 478 l 296 478 q 385 582 385 497 l 388 582 q 303 690 388 658 l 292 690 m 1178 582 q 1274 475 1178 501 l 1274 690 q 1178 582 1199 690 m 1467 399 l 1467 379 l 1476 379 l 1476 399 l 1467 399 m 1467 274 l 1467 254 l 1476 254 l 1476 274 l 1467 274 z "},"@":{"ha":1625,"x_min":8,"x_max":1528,"o":"m 743 1125 l 794 1125 q 1413 939 1165 1125 q 1528 738 1528 831 l 1528 704 q 1521 664 1528 678 l 1528 600 l 1528 558 q 1307 201 1528 372 q 804 44 1069 44 l 732 44 q 140 276 394 44 q 8 558 8 424 l 8 600 l 15 664 q 8 704 8 678 l 8 738 q 281 1036 8 896 q 743 1125 508 1125 m 39 719 q 283 447 39 568 q 757 354 503 354 l 781 354 q 1440 578 1208 354 q 1497 719 1497 657 q 1178 1021 1497 900 q 769 1088 982 1088 q 117 883 356 1088 q 39 719 39 799 m 713 1065 l 776 1065 q 1260 906 1089 1065 q 1307 797 1307 847 q 1004 556 1307 640 q 828 522 875 522 l 804 525 l 804 518 l 739 518 q 403 582 621 518 q 192 797 192 671 q 504 1040 192 956 q 713 1065 611 1065 m 215 797 l 222 760 l 243 819 q 474 983 322 938 q 743 1025 607 1025 l 769 1025 q 1232 872 1063 1025 q 1276 797 1276 815 l 1281 797 l 1281 808 q 1090 983 1281 897 q 746 1040 928 1040 q 271 901 444 1040 q 215 797 215 844 m 250 742 q 304 664 250 697 l 307 664 l 304 700 l 304 715 q 546 946 304 860 q 746 976 651 976 q 1178 760 1099 960 q 1189 700 1185 749 l 1182 656 q 1263 735 1218 672 q 933 981 1263 910 q 757 999 892 992 q 288 839 449 999 q 250 742 250 790 m 338 768 l 338 764 l 342 764 q 501 879 368 829 q 732 917 611 917 l 760 917 q 1144 771 1021 917 q 1161 719 1161 739 l 1161 708 q 1133 633 1161 665 l 1133 629 q 1168 708 1160 638 q 926 924 1168 844 q 757 946 840 946 l 739 946 q 406 850 543 946 q 338 768 357 810 m 403 656 q 640 578 403 647 q 746 551 699 551 l 757 551 l 757 556 l 746 556 l 746 558 l 776 600 q 696 629 696 618 q 640 667 696 656 l 586 656 l 515 675 q 474 640 513 667 l 433 653 l 433 656 q 560 757 451 676 l 644 738 l 644 719 q 729 682 664 682 l 746 682 q 804 697 783 682 l 906 671 l 906 667 l 821 556 l 842 556 q 1018 786 893 615 l 671 857 l 403 656 m 678 846 q 713 835 713 844 l 689 813 q 764 779 746 813 l 807 771 l 814 771 l 849 779 l 924 764 l 947 790 q 994 775 994 783 l 917 682 q 814 715 814 700 q 715 760 814 754 l 713 760 q 658 746 683 760 q 576 771 576 763 l 678 846 m 726 835 l 732 835 l 750 831 l 750 828 l 743 817 l 889 786 l 899 797 l 913 797 l 929 793 l 929 790 l 913 771 l 708 817 l 708 824 l 726 835 m 764 828 l 767 828 q 886 797 886 807 l 882 793 l 879 793 q 764 824 764 817 l 764 828 m 767 797 l 821 786 l 821 779 l 807 779 q 764 793 764 782 l 767 797 m 706 749 l 739 749 q 797 719 778 749 l 790 711 l 682 738 l 682 746 l 706 749 m 671 731 l 781 704 l 781 697 l 729 689 q 661 724 661 703 q 671 731 661 731 m 335 660 l 335 656 q 344 640 340 640 l 338 660 l 335 660 m 525 664 l 757 596 l 757 593 q 726 563 736 563 l 696 571 l 696 578 l 708 596 l 542 649 l 525 629 l 518 629 l 494 633 l 494 640 q 525 664 514 664 m 610 656 l 640 656 q 682 633 669 656 l 678 629 l 675 629 q 610 653 610 644 l 610 656 m 549 638 l 685 596 l 685 589 l 675 578 q 539 626 550 615 l 549 638 m 39 596 q 431 153 39 310 q 736 97 593 97 l 800 97 q 1358 299 1110 97 q 1497 596 1497 436 q 1290 425 1389 460 q 764 313 1071 313 q 86 536 328 313 l 39 596 z "},"A":{"ha":950,"x_min":194,"x_max":833,"o":"m 406 1111 l 439 1111 q 489 1044 489 1082 q 422 972 469 972 l 411 972 q 344 1039 344 986 l 344 1044 q 406 1111 360 1111 m 683 1050 l 728 1017 l 583 789 q 606 644 583 739 l 828 689 l 833 683 q 783 394 796 394 l 744 394 l 739 400 l 733 400 l 739 522 l 739 578 q 428 389 635 554 l 394 283 q 456 100 443 167 l 417 89 l 322 289 l 356 422 q 344 439 344 422 l 333 439 q 272 339 272 410 l 233 206 q 194 222 194 211 q 256 467 213 467 l 289 506 q 217 550 217 539 q 239 600 224 600 l 333 583 l 489 639 l 489 817 q 683 1050 669 1050 z "},"B":{"ha":972,"x_min":40,"x_max":938,"o":"m 347 1036 q 601 907 540 957 l 610 907 q 697 982 676 982 l 756 947 l 689 831 q 931 743 722 797 l 938 736 l 938 729 l 814 496 l 763 510 l 763 517 l 828 681 l 668 701 q 500 503 500 557 q 368 292 424 292 l 85 128 l 40 189 l 325 394 l 347 483 l 339 483 l 172 374 l 150 374 l 63 729 l 69 729 l 121 743 l 222 538 q 471 865 356 669 l 325 954 l 69 926 l 56 982 q 347 1036 297 1036 m 413 210 l 449 210 q 514 128 514 175 l 514 121 q 435 39 494 39 l 390 39 q 332 93 351 56 l 332 156 q 413 210 365 210 z "},"C":{"ha":1367,"x_min":76,"x_max":1303,"o":"m 906 1111 q 971 1088 971 1104 q 990 949 971 949 q 1138 886 1135 892 l 1303 424 l 1300 421 l 1296 421 q 1225 440 1225 421 l 1094 726 q 1014 450 1088 726 q 961 369 1001 392 l 919 326 l 181 382 l 181 385 q 219 444 208 443 l 806 493 l 808 854 l 806 854 l 597 782 l 593 785 q 658 860 624 860 q 886 974 801 940 q 906 1111 894 1111 m 181 782 l 200 782 q 294 694 261 782 l 297 671 q 203 564 297 593 l 183 561 q 76 668 76 582 l 76 685 q 158 779 76 747 l 181 782 m 763 314 q 913 297 913 310 l 913 151 q 1085 93 1085 100 l 1088 79 l 1088 38 l 1082 31 l 789 103 l 757 310 l 760 314 l 763 314 z "},"D":{"ha":1707,"x_min":93,"x_max":1528,"o":"m 896 1101 l 1000 939 q 1160 915 1160 924 l 1381 390 l 1383 388 q 1342 219 1350 228 l 1528 14 l 1525 11 l 1522 11 l 1282 0 l 907 0 l 907 6 l 1061 203 l 1256 217 l 1256 219 l 1238 219 q 815 208 950 208 l 847 3 l 843 0 l 800 0 q 774 206 792 0 l 757 206 q 661 144 749 206 l 656 3 l 653 0 l 603 0 l 600 3 l 597 3 l 608 104 l 606 104 l 458 0 l 328 0 l 328 3 l 450 115 q 624 614 618 610 q 568 704 568 694 l 589 729 q 578 736 578 729 q 594 808 578 808 l 757 822 l 760 819 l 760 736 l 754 729 l 725 729 q 760 590 749 590 l 806 542 l 808 542 l 808 544 q 840 776 828 776 l 869 840 l 826 985 l 824 985 l 824 979 l 826 835 l 824 832 l 699 832 l 693 838 l 693 854 q 250 832 267 836 q 192 793 200 793 q 107 817 107 800 l 93 1022 q 189 1035 100 1028 l 264 985 l 682 990 q 696 1006 694 993 q 813 1025 747 1019 l 813 1028 l 806 1057 q 896 1101 851 1086 m 635 729 l 656 710 l 661 729 l 635 729 m 693 729 l 693 715 l 690 667 l 725 632 l 725 635 l 717 729 l 693 729 m 644 579 l 519 174 q 632 278 626 258 l 664 553 l 650 579 l 644 579 m 971 571 l 832 358 l 835 358 l 1075 406 l 974 571 l 971 571 m 682 524 l 682 521 l 672 313 l 669 304 q 754 342 704 342 l 757 344 l 757 347 q 719 472 757 435 q 682 524 700 506 m 789 368 l 792 350 l 794 350 l 800 356 q 794 365 794 356 l 792 368 l 789 368 m 1279 222 l 1279 219 l 1290 219 l 1290 222 l 1279 222 z "},"E":{"ha":931,"x_min":40,"x_max":858,"o":"m 540 1164 q 678 1053 669 1053 q 807 1022 807 1032 q 858 960 858 965 q 769 557 769 575 l 764 250 l 761 217 l 835 0 l 772 0 q 714 146 764 0 q 657 368 681 206 l 629 519 l 628 519 l 454 307 l 399 0 l 353 0 q 347 8 347 0 l 350 313 l 506 549 l 533 901 l 531 901 l 428 854 q 388 967 404 893 l 385 967 l 385 963 q 410 836 404 836 l 411 836 l 508 874 l 511 871 l 511 869 q 493 808 511 808 l 361 781 q 333 1013 356 790 l 324 1025 l 321 1025 l 156 997 l 135 960 l 107 963 l 63 963 q 46 982 46 963 l 40 1090 l 135 1106 l 140 1078 l 333 1083 l 333 1106 q 368 1114 333 1114 l 425 1114 l 439 1115 l 442 1114 l 439 1046 l 439 1031 q 465 978 439 1015 l 539 1013 l 450 1136 l 450 1142 l 540 1164 m 382 975 l 382 969 l 385 969 l 385 975 l 382 975 z "},"F":{"ha":1644,"x_min":40,"x_max":1619,"o":"m 46 900 l 1614 900 l 1619 894 l 1619 319 l 1614 313 l 1561 313 l 1556 319 l 1556 382 l 1531 407 q 1464 340 1469 340 l 1397 407 l 1329 340 l 1326 340 l 1260 407 l 1193 340 l 1135 410 l 1079 343 l 1076 343 l 1022 410 l 989 374 l 985 374 l 985 400 l 1010 433 l 961 497 l 958 518 q 1000 571 983 557 l 1010 571 l 1015 564 l 974 513 l 1019 449 l 1025 449 l 1071 510 q 1031 567 1031 561 l 1035 567 q 1079 531 1053 567 q 1104 556 1079 542 l 1114 551 l 1114 556 l 1122 600 l 1119 600 q 1092 631 1092 617 l 1089 631 l 1079 625 l 1076 625 l 1068 631 l 1065 631 q 1053 618 1065 618 q 1040 628 1040 624 l 1058 649 q 1025 692 1025 682 l 1019 692 l 989 646 l 992 636 l 989 636 q 913 692 913 669 l 903 685 q 890 694 890 690 l 890 697 l 897 707 l 875 740 l 879 754 l 885 754 q 913 721 885 746 l 958 782 q 910 843 928 828 l 879 807 l 897 788 l 894 785 l 897 782 l 897 779 q 875 761 885 761 l 860 764 l 860 767 l 875 785 l 818 843 l 815 843 q 757 782 783 815 l 790 746 l 781 733 l 778 733 l 747 764 l 696 707 l 724 674 l 724 669 l 701 667 q 681 692 692 685 q 622 649 646 649 l 581 633 l 581 636 l 586 646 l 586 649 l 543 692 l 504 649 l 504 646 l 522 625 l 522 618 l 497 615 q 492 640 492 622 l 479 628 l 489 618 l 489 615 l 482 610 l 474 610 l 464 615 l 425 574 l 546 440 l 601 504 l 558 551 q 586 561 558 558 q 614 531 593 546 l 650 567 l 653 567 l 660 549 l 622 513 q 660 461 660 471 l 660 456 l 653 449 l 610 492 l 558 433 l 614 376 l 647 410 l 650 410 q 614 343 650 367 l 610 343 l 543 413 l 479 340 l 476 340 l 410 407 l 342 338 l 272 407 l 208 340 l 206 340 l 138 407 l 96 361 l 96 319 l 89 313 l 46 313 l 40 319 l 40 894 l 46 900 m 96 843 l 96 810 l 125 840 l 122 843 l 96 843 m 153 836 l 208 782 l 260 840 l 257 843 l 160 843 l 153 836 m 288 836 q 339 782 339 790 l 397 840 l 394 843 l 293 843 l 288 836 m 425 843 l 425 840 l 489 769 l 489 758 l 425 689 l 467 643 l 476 651 l 479 651 l 492 643 q 513 679 492 661 l 531 700 l 494 740 l 494 761 l 497 761 l 546 713 l 601 776 q 543 840 601 782 q 497 792 521 810 l 494 792 l 494 813 l 519 843 l 425 843 m 571 843 q 614 797 571 835 l 656 843 l 571 843 m 622 785 q 681 721 622 779 l 739 782 l 683 843 l 678 843 l 622 785 m 706 843 l 747 797 q 790 843 790 836 l 706 843 m 842 843 l 842 840 l 869 813 q 888 840 869 819 l 888 843 l 842 843 m 931 843 q 967 797 931 836 l 1000 843 l 931 843 m 974 785 l 1019 721 l 1025 721 l 1071 782 q 1022 843 1049 818 l 974 785 m 1043 843 q 1079 797 1051 825 l 1114 843 l 1043 843 m 1086 785 l 1135 721 l 1138 721 l 1183 785 l 1135 843 l 1086 785 m 1156 843 l 1156 840 l 1199 788 l 1247 840 l 1244 843 l 1156 843 m 1275 836 l 1329 782 l 1382 836 l 1382 843 l 1281 843 l 1275 836 m 1410 836 l 1467 782 l 1519 840 l 1515 843 l 1415 843 l 1410 836 m 1546 836 l 1556 831 l 1556 843 l 1553 843 l 1546 836 m 217 767 l 275 710 l 331 769 q 275 831 329 776 q 217 767 217 781 m 351 769 l 410 710 l 467 769 q 410 831 464 781 l 351 769 m 1260 831 l 1201 769 l 1263 710 l 1318 769 q 1260 831 1318 778 m 1339 769 l 1397 710 l 1454 774 l 1397 831 q 1339 769 1349 786 m 138 825 l 96 779 l 96 749 q 138 703 107 731 q 196 767 196 754 l 138 825 m 1531 825 l 1474 761 l 1535 700 l 1556 728 l 1556 800 l 1531 825 m 610 764 l 558 707 l 599 661 l 614 674 l 625 664 l 665 707 q 610 764 635 744 m 964 764 l 921 707 l 951 664 l 954 664 l 964 669 l 967 669 l 976 664 l 1010 707 l 964 764 m 1076 764 l 1035 707 l 1068 664 l 1076 669 l 1079 669 l 1089 664 l 1092 664 l 1122 707 l 1076 764 m 1183 758 l 1147 707 l 1181 664 l 1190 669 l 1193 669 l 1201 661 l 1199 658 l 1199 656 l 1201 651 l 1204 651 q 1247 697 1236 679 l 1186 758 l 1183 758 m 206 751 l 153 694 l 196 651 l 206 661 l 208 661 l 221 651 l 260 694 l 206 751 m 1326 751 q 1275 697 1322 739 q 1318 651 1275 690 l 1326 661 l 1329 661 l 1342 651 l 1382 694 q 1326 751 1363 721 m 288 694 l 331 651 l 342 661 l 354 651 l 397 697 l 342 749 l 288 694 m 1413 697 l 1413 694 l 1454 651 l 1464 661 l 1479 651 l 1519 697 l 1464 749 l 1413 697 m 815 733 l 842 733 q 864 664 849 733 l 1104 582 l 1104 576 l 1074 576 q 890 610 1029 576 l 882 538 l 958 489 l 958 449 l 961 307 l 958 304 l 940 304 q 921 446 929 304 l 818 494 q 732 428 733 435 q 671 276 685 294 l 668 276 l 644 286 l 686 474 l 754 546 l 754 613 l 724 613 l 489 567 l 485 571 l 485 589 q 644 631 485 597 q 772 674 644 640 l 803 674 l 803 697 q 815 733 803 733 m 96 718 l 96 658 l 125 689 l 96 718 m 1546 689 l 1556 679 l 1556 697 l 1546 689 m 1132 692 l 1099 646 l 1135 603 l 1138 603 l 1168 646 l 1168 649 q 1132 692 1136 692 m 1260 682 l 1219 636 l 1257 594 l 1260 594 l 1303 636 l 1260 682 m 99 633 l 138 594 l 181 636 l 138 679 q 99 633 99 647 m 232 636 l 275 594 l 315 636 q 275 679 315 644 l 232 636 m 367 636 l 410 594 l 451 636 l 410 679 l 367 636 m 1354 636 l 1397 594 q 1439 640 1428 621 l 1397 679 l 1354 636 m 1531 674 l 1489 628 l 1535 585 l 1556 610 l 1556 649 l 1531 674 m 1178 631 l 1147 589 l 1193 525 l 1247 579 l 1204 622 l 1193 613 l 1181 625 l 1183 628 l 1183 631 l 1178 631 m 193 622 l 153 579 l 208 522 l 260 579 l 217 622 l 208 613 l 206 613 l 193 622 m 290 579 l 290 576 l 342 525 q 394 579 388 565 l 354 622 l 342 613 l 331 622 q 290 579 290 586 m 1315 622 l 1275 579 l 1329 525 l 1382 579 l 1344 622 l 1342 622 l 1329 613 l 1315 622 m 1413 579 q 1464 525 1432 553 l 1519 579 l 1476 622 l 1464 613 l 1451 622 l 1413 579 m 96 600 l 96 543 l 125 574 l 96 600 m 1546 571 l 1556 564 l 1556 579 l 1546 571 m 1132 574 q 1086 513 1132 567 q 1135 449 1094 494 l 1138 449 l 1181 507 q 1132 574 1181 522 m 217 500 l 275 443 l 331 504 l 275 564 q 217 500 217 514 m 351 504 l 410 443 l 467 504 q 410 564 464 515 l 351 504 m 1260 564 l 1201 504 l 1263 443 l 1318 504 q 1260 564 1318 511 m 1339 504 l 1397 443 q 1454 507 1454 500 l 1397 564 q 1339 504 1358 531 m 138 558 l 96 513 l 96 482 q 138 438 96 475 q 196 500 196 488 l 138 558 m 1531 558 l 1474 494 l 1535 433 l 1556 461 l 1556 533 l 1531 558 m 525 549 l 525 546 l 492 513 l 489 513 l 489 533 q 525 549 489 547 m 425 428 l 482 364 l 485 364 q 519 419 485 396 l 531 433 q 489 485 489 475 l 489 494 l 425 428 m 1035 433 l 1079 376 l 1122 433 l 1079 492 l 1035 433 m 1186 489 l 1147 433 q 1196 374 1169 399 l 1247 431 q 1193 489 1193 479 l 1186 489 m 206 485 l 153 428 l 208 374 l 260 428 l 206 485 m 1326 485 l 1275 428 l 1329 374 l 1333 374 l 1382 428 q 1326 485 1351 465 m 288 428 l 342 374 l 397 431 l 342 482 l 288 428 m 1413 425 l 1464 374 q 1519 431 1510 414 l 1464 482 q 1413 425 1413 438 m 96 453 l 96 392 l 125 422 q 99 453 99 443 l 96 453 m 1546 422 l 1556 413 l 1556 431 l 1546 422 z "},"G":{"ha":1389,"x_min":160,"x_max":1344,"o":"m 365 1244 l 369 1244 q 397 1129 382 1244 l 390 1106 l 415 990 l 503 1000 l 504 999 l 504 976 l 507 976 l 513 994 l 454 1099 l 500 1124 l 596 1053 l 669 1053 l 681 1054 q 792 753 686 1049 q 810 825 796 753 l 811 828 l 944 810 l 944 807 l 858 551 l 856 551 l 794 563 q 783 542 789 542 l 708 538 l 708 483 l 710 329 l 807 307 q 826 421 822 417 l 890 415 l 888 413 l 888 403 l 961 383 l 961 379 l 953 369 l 953 367 q 1344 0 958 367 l 1344 0 l 1279 0 l 943 354 l 940 354 q 924 336 932 336 q 876 349 886 349 l 867 285 q 1135 99 975 225 l 1264 0 l 1264 0 l 1194 0 q 1097 26 1183 6 l 1101 0 l 1085 0 q 1074 35 1079 0 l 1029 44 l 1069 3 l 1069 0 l 996 0 q 843 196 960 39 l 268 192 l 253 256 l 211 254 l 188 254 l 188 256 q 207 317 199 317 l 564 336 l 357 582 l 357 585 q 414 618 389 618 l 649 685 l 649 686 l 551 836 l 446 743 l 442 743 l 260 886 l 232 850 l 188 850 l 176 847 l 172 856 l 160 1022 q 215 1031 164 1026 l 286 957 q 339 975 339 963 q 386 986 339 982 q 369 1099 374 1099 q 342 1113 342 1099 l 321 1232 q 365 1244 340 1244 m 274 906 l 276 906 l 286 908 l 432 833 l 468 899 l 349 888 q 335 931 339 931 l 333 931 q 276 908 276 922 l 274 906 m 658 533 l 519 526 l 661 349 l 661 351 l 664 536 l 661 533 l 658 533 m 899 238 l 879 197 q 953 156 907 156 q 969 151 953 151 q 949 196 964 196 l 899 238 m 988 165 q 1004 143 988 143 l 1018 139 l 988 165 m 944 132 l 944 129 l 981 93 q 969 125 976 125 l 944 132 m 997 117 l 997 115 q 1014 74 1003 74 l 1069 61 q 1054 103 1063 103 l 997 117 m 1085 88 q 1094 56 1089 56 l 1135 44 l 1085 88 z "},"H":{"ha":1667,"x_min":53,"x_max":1621,"o":"m 58 833 l 1615 833 l 1621 826 l 1621 156 l 1615 149 l 1563 149 l 1557 156 l 1557 229 l 1533 257 q 1467 179 1472 179 l 1400 257 l 1333 179 l 1331 179 l 1264 257 l 1197 179 l 1139 261 l 1085 183 l 1082 183 l 1028 261 l 994 218 l 992 218 l 992 250 l 1015 289 l 967 364 l 964 389 l 1064 540 q 1031 589 1031 579 l 1025 589 l 994 540 l 994 536 l 1006 515 l 1006 513 q 918 589 918 569 l 910 582 q 897 593 897 588 l 897 597 l 903 607 l 882 646 l 885 664 l 892 664 q 918 625 892 653 l 964 696 q 915 767 935 749 l 885 724 l 903 703 l 900 699 l 903 696 l 903 692 q 882 671 892 671 l 867 675 l 867 678 l 882 699 l 825 767 l 822 767 q 764 696 790 735 l 797 653 q 789 636 793 636 l 756 675 l 704 607 l 731 568 l 731 565 l 710 561 q 689 589 700 582 q 631 540 654 540 l 613 536 l 625 513 l 622 508 l 619 508 l 610 519 q 567 465 567 475 l 622 403 l 658 444 l 661 444 l 667 424 l 631 381 q 667 321 667 333 l 667 314 l 661 307 l 619 357 l 567 289 l 622 222 l 656 261 l 658 261 q 622 183 658 211 l 619 183 l 553 264 l 489 179 l 486 179 l 419 257 l 353 176 l 283 257 l 219 179 l 217 179 l 150 257 l 107 204 l 107 156 l 101 149 l 58 149 l 53 156 l 53 826 l 58 833 m 107 767 l 107 728 l 138 763 l 135 767 l 107 767 m 165 760 l 219 696 l 271 763 l 268 767 l 171 767 l 165 760 m 299 760 q 350 696 350 706 l 407 763 l 404 767 l 304 767 l 299 760 m 435 767 l 435 763 l 497 682 l 497 667 l 435 586 l 476 533 l 486 543 l 489 543 l 501 533 q 522 575 501 554 l 540 600 l 504 646 l 504 671 l 507 671 l 556 614 l 610 689 q 553 763 610 696 q 507 706 531 728 l 504 706 l 504 731 l 528 767 l 435 767 m 579 767 q 622 714 579 757 l 664 767 l 579 767 m 631 699 q 689 625 631 692 l 746 696 l 692 767 l 685 767 l 631 699 m 713 767 l 756 714 q 797 767 797 758 l 713 767 m 849 767 l 849 763 l 876 731 q 894 763 876 739 l 894 767 l 849 767 m 936 767 q 974 714 938 758 l 1006 767 l 936 767 m 979 699 l 1025 625 l 1031 625 l 1076 696 q 1028 767 1053 738 l 979 699 m 1049 767 q 1085 714 1057 746 l 1118 767 l 1049 767 m 1092 699 l 1139 625 l 1143 625 l 1188 699 l 1139 767 l 1092 699 m 1161 767 l 1161 763 l 1203 703 l 1251 763 l 1249 767 l 1161 767 m 1279 760 l 1333 696 l 1385 760 l 1385 767 l 1285 767 l 1279 760 m 1413 760 l 1469 696 l 1521 763 l 1518 767 l 1418 767 l 1413 760 m 1549 760 l 1557 751 l 1557 767 l 1554 767 l 1549 760 m 228 678 l 286 611 l 340 682 q 286 751 340 689 q 228 678 228 693 m 361 682 l 419 611 l 476 682 q 419 751 474 694 l 361 682 m 1264 751 l 1206 682 l 1267 611 l 1321 682 q 1264 751 1321 690 m 1342 682 l 1400 611 l 1457 685 l 1400 751 q 1342 682 1351 700 m 150 744 l 107 692 l 107 657 q 150 604 118 635 q 207 678 207 663 l 150 744 m 1533 744 l 1475 671 l 1536 600 l 1557 632 l 1557 717 l 1533 744 m 619 675 l 567 607 l 607 554 l 622 568 l 633 558 l 674 607 q 619 675 643 651 m 969 675 l 928 607 l 958 558 l 961 558 l 969 565 l 974 565 l 982 558 l 1015 607 l 969 675 m 1082 675 l 1039 607 l 1072 558 l 1082 565 l 1085 565 l 1094 558 l 1097 558 l 1128 607 l 1082 675 m 1188 667 l 1151 607 l 1185 558 l 1194 565 l 1197 565 l 1206 554 l 1203 551 l 1203 547 l 1206 543 l 1210 543 q 1251 597 1240 575 l 1190 667 l 1188 667 m 217 660 l 165 593 l 207 543 l 217 554 l 219 554 l 232 543 l 271 593 l 217 660 m 1331 660 q 1279 597 1325 644 q 1321 543 1279 588 l 1331 554 l 1333 554 l 1346 543 l 1385 593 q 1331 660 1365 624 m 299 593 l 340 543 l 353 554 l 364 543 l 407 597 l 353 657 l 299 593 m 1415 597 l 1415 593 l 1457 543 l 1467 554 l 1482 543 l 1521 597 l 1467 657 l 1415 597 m 822 639 l 849 639 q 869 561 860 639 q 997 494 907 561 l 1000 490 l 1000 488 l 940 389 l 913 406 l 954 481 l 897 494 l 889 410 q 964 353 943 379 l 964 307 l 967 140 l 964 138 l 943 138 q 928 303 931 138 l 825 360 q 740 282 740 290 q 676 106 692 106 l 653 117 q 700 339 689 339 q 761 426 761 408 l 761 497 l 731 497 q 710 490 710 497 l 743 410 l 733 403 l 728 403 q 653 522 713 415 q 779 568 733 558 l 810 568 l 810 597 q 822 639 810 639 m 107 621 l 107 551 l 138 586 l 107 621 m 1549 586 l 1557 575 l 1557 597 l 1549 586 m 553 589 l 513 540 l 513 536 l 553 483 l 594 536 l 594 540 l 553 589 m 1136 589 l 1103 536 l 1139 488 l 1143 488 l 1172 536 l 1172 540 q 1136 589 1142 589 m 1264 579 l 1224 526 l 1261 476 l 1264 476 l 1306 526 l 1264 579 m 110 522 l 150 476 l 192 526 l 150 575 q 110 522 110 538 m 243 526 l 286 476 l 325 526 q 286 575 325 535 l 243 526 m 376 526 l 419 476 l 461 526 l 419 575 l 376 526 m 1357 526 l 1400 476 q 1442 529 1431 508 l 1400 575 l 1357 526 m 1533 568 l 1490 515 l 1536 465 l 1557 494 l 1557 540 l 1533 568 m 489 515 l 497 504 l 497 501 l 489 490 l 486 490 l 474 501 l 435 451 l 556 296 l 610 371 q 553 444 610 378 q 501 381 546 428 l 497 381 l 497 406 l 540 463 q 501 526 501 501 l 501 529 l 489 515 m 1069 519 l 1039 469 l 1085 403 l 1128 469 l 1097 519 l 1094 519 l 1085 513 l 1082 513 l 1072 519 l 1069 519 m 1182 519 l 1151 469 l 1197 396 l 1251 458 l 1210 508 l 1197 497 l 1185 513 l 1188 515 l 1188 519 l 1182 519 m 204 508 l 165 458 l 219 392 l 271 458 l 228 508 l 219 497 l 217 497 l 204 508 m 301 458 l 301 456 l 353 396 q 404 458 397 442 l 364 508 l 353 497 l 340 508 q 301 458 301 468 m 1318 508 l 1279 458 l 1333 396 l 1385 458 l 1349 508 l 1346 508 l 1333 497 l 1318 508 m 1415 458 q 1467 396 1435 428 l 1521 458 l 1478 508 l 1467 497 l 1454 508 l 1415 458 m 107 483 l 107 417 l 138 451 l 107 483 m 1549 449 l 1557 442 l 1557 458 l 1549 449 m 1136 451 q 1092 381 1136 444 q 1139 307 1100 360 l 1143 307 l 1185 374 q 1136 451 1185 393 m 979 381 l 1025 307 l 1031 307 l 1076 378 q 1028 449 1039 439 l 979 381 m 228 367 l 286 300 l 340 371 l 286 442 q 228 367 228 382 m 361 371 l 419 300 l 476 371 q 419 442 474 383 l 361 371 m 1264 442 l 1206 371 l 1267 300 l 1321 371 q 1264 442 1321 381 m 1342 371 l 1400 300 q 1457 374 1457 367 l 1400 442 q 1342 371 1363 401 m 150 435 l 107 381 l 107 346 q 150 293 107 338 q 207 367 207 351 l 150 435 m 1533 435 l 1475 360 l 1536 289 l 1557 321 l 1557 406 l 1533 435 m 435 282 l 492 208 l 494 208 q 528 272 494 244 l 540 289 q 497 350 497 338 l 497 360 l 435 282 m 1039 289 l 1085 222 l 1128 289 l 1085 357 l 1039 289 m 1190 353 l 1151 289 q 1200 218 1174 249 l 1251 286 q 1197 353 1197 343 l 1190 353 m 217 350 l 165 282 l 219 218 l 271 282 l 217 350 m 1331 350 l 1279 282 l 1333 218 l 1336 218 l 1385 282 q 1331 350 1354 326 m 299 282 l 353 218 l 407 286 l 353 346 l 299 282 m 1415 279 l 1467 218 q 1521 286 1511 267 l 1467 346 q 1415 279 1415 294 m 107 311 l 107 240 l 138 275 q 110 311 110 300 l 107 311 m 1549 275 l 1557 264 l 1557 286 l 1549 275 z "},"I":{"ha":1326,"x_min":53,"x_max":1283,"o":"m 685 1044 l 692 1044 l 849 940 l 1007 978 l 1283 371 q 1201 69 1225 100 q 736 315 1081 122 q 544 18 558 28 l 443 18 q 651 471 443 35 l 654 471 l 993 360 l 993 364 l 890 608 l 888 608 q 760 457 767 457 l 736 457 q 507 736 594 621 l 422 740 l 385 740 q 357 810 378 740 l 183 822 q 139 778 172 778 l 63 778 l 56 785 l 53 961 q 165 975 92 975 l 172 940 l 378 926 l 378 931 q 388 978 378 978 l 542 978 l 549 971 l 544 796 l 544 792 l 722 601 q 767 822 767 790 l 582 985 l 582 989 l 685 1044 z "},"J":{"ha":1590,"x_min":53,"x_max":1492,"o":"m 808 1072 l 879 1072 q 929 915 900 1072 l 1492 722 l 1492 708 l 1421 708 q 993 786 1319 708 l 972 615 q 1150 500 1124 529 l 1157 71 l 1150 64 l 1107 64 q 1064 400 1088 64 l 822 515 q 622 343 622 374 q 481 0 497 1 q 424 29 424 8 q 531 479 508 461 q 679 643 678 628 l 679 793 q 60 686 568 793 l 53 693 l 53 736 q 431 843 53 754 q 729 936 431 865 l 786 936 l 786 943 q 808 1072 786 1072 z "},"K":{"ha":1564,"x_min":49,"x_max":1528,"o":"m 1224 972 q 1274 963 1261 969 l 1106 519 l 1150 465 q 1192 499 1192 475 q 1214 574 1201 574 l 1268 578 q 1281 463 1274 565 l 1343 463 l 1496 764 q 1528 750 1528 764 q 1397 386 1397 422 q 1375 243 1385 243 l 1106 243 q 1081 397 1099 243 l 1076 397 q 1042 192 1051 192 l 636 192 q 614 315 624 192 q 604 379 610 315 l 601 379 q 575 225 583 225 l 261 225 q 226 429 253 225 l 49 764 l 51 768 q 118 736 118 761 q 308 483 274 538 q 363 526 363 497 q 389 610 369 610 l 449 617 q 464 483 456 617 l 544 483 l 560 519 l 363 886 l 367 886 q 451 847 451 882 l 617 635 l 715 832 l 718 832 l 753 829 l 753 825 l 661 574 l 703 524 q 763 567 763 540 q 792 685 785 685 l 881 696 l 899 519 l 1001 519 l 1010 549 q 925 707 933 679 l 928 707 q 994 667 976 707 q 1039 606 1039 613 l 1042 606 q 1224 972 1211 964 z "},"L":{"ha":1338,"x_min":171,"x_max":1307,"o":"m 758 1140 l 861 1029 q 1010 1011 1010 1024 l 1217 656 l 1193 347 l 1307 10 q 1214 1 1285 4 l 1038 333 l 1051 508 q 847 356 847 361 l 824 267 l 910 14 l 865 7 q 806 192 858 7 l 803 192 l 747 1 l 744 1 q 678 22 678 17 l 738 410 q 661 644 675 617 l 578 728 l 578 725 l 606 1 l 603 0 l 557 0 q 550 7 550 0 l 554 757 l 524 785 l 219 0 l 178 0 l 174 1 l 171 1 l 506 810 l 447 868 l 468 890 q 457 896 457 890 q 475 943 457 943 l 626 953 l 631 950 l 631 896 q 596 890 631 890 q 651 782 638 782 q 675 763 651 775 q 713 932 696 932 l 733 963 l 692 1064 l 689 1064 l 692 1021 l 692 976 l 696 960 l 692 957 l 575 957 l 568 963 l 568 994 l 357 1001 q 292 953 357 953 l 278 953 q 243 965 251 953 q 278 1007 278 997 l 278 1014 l 275 1014 l 236 1007 l 233 1010 l 233 1043 q 278 1058 235 1050 l 278 1064 l 215 1076 l 215 1083 q 261 1115 215 1115 l 315 1118 q 357 1056 343 1068 l 554 1056 q 571 1076 571 1064 l 678 1090 l 678 1093 l 675 1110 q 758 1140 714 1129 m 513 890 l 533 874 l 538 890 l 513 890 m 571 890 l 571 843 l 613 811 l 589 890 l 571 890 m 826 779 l 696 632 l 761 439 q 993 614 992 607 q 854 753 949 642 q 831 779 836 779 l 826 779 z "},"M":{"ha":1568,"x_min":0,"x_max":1528,"o":"m 1089 833 q 1289 794 1289 808 l 1289 789 l 1278 756 l 1100 772 q 1017 711 1069 757 q 1261 528 1113 657 l 1372 450 l 1489 561 q 1528 533 1525 546 q 1367 356 1406 388 l 1361 356 l 1194 444 q 928 344 976 392 l 844 283 l 811 311 l 811 317 q 1072 500 981 471 l 1072 511 l 928 544 q 867 472 888 474 q 739 494 739 478 l 739 522 l 750 533 l 833 533 q 878 628 850 538 l 806 661 l 806 667 q 828 722 806 688 l 911 694 l 911 700 q 989 783 940 783 q 1089 833 1063 833 m 583 738 l 772 665 l 772 643 l 761 600 l 578 650 q 494 585 510 611 q 761 236 522 583 q 806 186 793 213 l 939 310 l 972 274 l 972 265 q 783 63 803 63 l 633 215 q 361 135 396 179 q 256 69 278 69 l 233 114 q 522 310 404 275 q 378 389 522 325 q 322 301 378 375 q 189 360 189 339 l 189 404 l 194 404 q 294 389 261 404 l 344 499 l 344 513 q 278 578 326 513 q 311 636 299 631 l 383 585 q 489 694 421 694 q 583 738 489 708 m 81 204 q 138 181 114 204 q 163 125 163 157 q 138 68 163 92 q 81 44 114 44 q 24 68 47 44 q 0 125 0 92 q 24 181 0 157 q 81 204 47 204 z "},"N":{"ha":1111,"x_min":32,"x_max":1049,"o":"m 340 1133 q 657 769 503 942 l 676 758 l 674 756 l 674 747 l 685 735 q 660 717 679 724 l 625 636 l 754 606 q 774 671 767 606 q 831 679 783 676 q 839 603 836 668 l 858 603 l 976 656 q 931 750 940 739 l 931 756 l 953 788 l 961 788 q 1049 635 1044 657 q 908 515 910 522 l 886 389 q 942 208 942 222 l 808 56 l 760 56 l 760 61 l 856 211 l 814 333 l 811 333 q 793 178 806 178 q 671 6 679 10 l 638 21 l 638 24 q 726 208 638 32 q 679 531 685 517 q 544 608 575 586 q 626 758 606 728 l 318 1115 l 318 1118 q 340 1133 329 1133 m 313 1107 l 486 906 l 486 901 q 363 817 426 901 q 208 682 332 738 l 203 682 l 32 882 q 175 1004 161 957 q 313 1107 225 1082 z "},"O":{"ha":972,"x_min":68,"x_max":836,"o":"m 832 415 l 758 174 l 704 193 l 754 415 l 703 525 q 460 290 606 414 l 454 286 l 236 335 l 349 138 q 286 97 342 125 l 68 449 l 69 460 q 319 440 135 461 l 364 933 l 413 926 q 421 746 429 924 l 425 744 q 476 900 463 901 l 510 894 q 517 832 526 893 l 510 778 q 617 706 564 724 l 679 792 l 738 761 l 736 756 q 688 656 732 726 q 778 575 783 618 q 832 415 836 442 m 508 660 l 429 733 l 424 733 l 421 482 q 508 660 438 479 m 694 1111 q 766 1085 736 1111 q 796 1022 796 1058 q 766 958 796 985 q 694 932 736 932 q 623 958 653 932 q 593 1022 593 985 q 623 1085 593 1058 q 694 1111 653 1111 z "},"P":{"ha":1056,"x_min":104,"x_max":1015,"o":"m 415 1083 q 675 950 613 1003 l 682 950 q 771 1028 750 1028 l 831 993 l 764 874 q 1008 783 797 839 l 1015 775 l 1015 768 l 889 531 l 838 544 l 838 551 l 904 719 l 742 740 q 571 538 571 593 q 438 321 494 321 l 149 153 l 104 217 l 393 426 l 415 517 l 408 517 l 238 406 l 215 406 l 126 768 l 133 768 l 186 783 l 289 574 q 542 908 425 707 l 393 1000 l 133 971 l 119 1028 q 415 1083 365 1083 m 482 238 l 519 238 q 586 153 586 203 l 586 146 q 504 63 565 63 l 460 63 q 400 118 421 81 l 400 182 q 482 238 435 238 z "},"Q":{"ha":972,"x_min":139,"x_max":929,"o":"m 838 1172 l 840 1172 l 929 1049 l 929 1043 l 926 1043 q 876 1057 904 1057 q 707 964 818 1057 q 660 931 699 964 q 760 769 681 908 q 599 664 624 676 l 593 494 q 626 399 593 471 q 724 19 668 303 q 663 0 679 0 q 590 211 644 0 q 497 415 554 319 q 425 297 474 388 q 192 17 367 208 l 186 17 l 139 61 q 267 231 192 143 q 394 486 351 371 l 325 638 q 150 769 218 704 l 150 772 q 247 961 165 817 l 250 961 l 283 925 l 283 917 q 236 799 275 910 q 378 742 342 742 l 406 742 l 406 832 l 411 838 l 478 835 l 481 832 q 599 925 599 919 l 590 947 l 626 969 l 632 969 q 643 956 643 964 l 646 956 q 818 1090 783 1056 q 840 1158 840 1121 l 840 1167 l 838 1169 l 838 1172 m 483 810 l 497 753 l 500 753 q 660 799 550 753 l 663 799 q 613 897 640 853 l 483 810 z "},"R":{"ha":1210,"x_min":38,"x_max":1181,"o":"m 1089 886 l 1104 886 q 1179 825 1156 886 l 1181 810 l 1181 800 q 1096 722 1167 722 l 1078 726 l 981 592 l 750 507 l 739 511 l 578 476 q 483 279 503 315 l 479 279 q 178 311 186 307 q 150 365 151 356 l 417 340 l 497 508 q 397 447 457 474 l 322 408 q 38 419 38 415 l 38 465 l 42 469 l 276 476 q 367 550 286 476 q 642 767 619 767 l 824 868 l 1031 851 q 1089 886 1058 886 m 835 810 l 738 726 l 743 718 l 824 749 l 864 692 l 786 636 l 801 610 q 950 642 926 632 q 1036 750 950 646 q 1015 804 1015 779 l 835 810 z "},"S":{"ha":1499,"x_min":58,"x_max":1453,"o":"m 1446 1004 l 1453 997 l 1453 968 q 1125 815 1439 939 l 1004 640 l 1004 633 l 1011 633 q 1268 757 1246 757 q 1189 414 1204 422 q 1154 501 1154 414 l 1154 596 q 883 385 992 531 q 1211 211 1206 225 l 1218 174 l 1211 167 l 833 290 q 1054 160 888 197 q 1076 144 1076 160 l 1076 124 l 1054 101 q 806 196 806 135 q 719 269 735 269 l 719 283 l 749 319 l 806 306 q 756 335 806 319 l 692 290 q 628 319 628 306 l 663 385 l 542 328 q 706 225 542 290 l 713 174 l 706 167 q 464 276 464 222 l 457 283 l 343 232 l 307 276 l 307 290 l 336 299 l 336 306 l 300 306 l 151 115 l 72 115 l 58 131 q 229 371 213 371 q 357 400 357 385 l 314 443 l 314 575 q 229 596 229 578 l 229 654 q 322 683 229 672 q 407 786 322 740 l 521 881 l 535 881 l 728 750 q 692 699 713 699 l 521 779 l 471 721 q 699 546 490 721 l 699 531 l 521 436 l 435 481 l 435 472 l 500 393 q 769 589 668 463 q 1097 894 1076 894 l 1446 1004 z "},"T":{"ha":1701,"x_min":17,"x_max":1667,"o":"m 956 1072 q 1033 1050 1033 1064 l 1006 906 l 1039 906 l 1039 900 q 850 828 1039 886 l 850 833 l 828 933 l 833 939 l 878 933 q 944 1067 886 935 l 950 1072 l 956 1072 m 722 944 q 817 917 817 944 l 833 794 l 1050 872 q 1078 889 1050 889 q 1272 561 1224 622 q 1300 539 1297 550 l 1300 533 l 1289 522 q 1344 411 1344 429 l 1322 411 l 1267 489 q 1039 650 1039 578 q 1006 717 1031 651 l 1000 717 l 1000 711 l 1050 594 l 1017 450 l 1011 450 q 800 539 832 514 l 833 611 l 806 700 l 1050 794 q 1083 811 1083 800 l 1078 811 q 739 694 761 694 l 711 939 l 717 944 l 722 944 m 1100 778 l 1100 772 q 1183 628 1138 628 l 1189 622 l 1189 628 l 1106 778 l 1100 778 m 983 756 l 983 744 l 989 744 l 989 756 l 983 756 m 161 733 q 817 511 321 733 q 1106 378 965 450 l 1106 372 l 1067 339 l 722 389 l 578 317 l 333 389 l 267 378 q 44 717 81 622 l 161 733 m 1217 400 q 1628 328 1613 339 l 1617 283 l 1222 350 l 1072 261 l 750 317 l 589 244 l 344 317 l 28 256 l 17 289 l 17 294 q 356 367 17 310 l 589 294 l 744 367 l 1061 317 l 1217 400 m 1233 306 q 1650 233 1638 244 l 1644 228 l 1644 194 l 1244 250 l 1083 172 l 772 222 q 606 150 649 160 l 367 222 l 50 161 l 33 206 l 367 272 l 611 200 l 761 272 l 1083 222 l 1233 306 m 1256 211 l 1661 144 l 1667 139 l 1667 111 l 1656 100 l 1261 156 l 1106 78 l 794 128 l 633 56 l 389 128 l 67 67 l 56 111 l 394 178 l 633 106 l 783 178 l 1106 128 l 1256 211 z "},"U":{"ha":1111,"x_min":0,"x_max":1050,"o":"m 872 1071 l 872 1060 q 339 710 856 1060 l 339 704 l 389 610 l 400 610 q 556 710 494 688 l 533 782 l 572 810 l 583 810 q 644 743 633 743 q 989 838 672 765 l 989 799 q 722 688 979 782 q 789 476 778 479 q 956 343 956 404 l 1050 126 l 994 99 q 850 343 871 331 l 750 376 q 622 160 646 178 l 383 143 l 372 193 q 594 243 379 204 l 644 426 l 533 604 l 367 515 l 294 682 l 289 682 q 6 504 26 504 l 0 526 l 283 710 l 278 715 l 322 738 l 322 732 q 872 1071 835 1061 z "},"V":{"ha":1389,"x_min":56,"x_max":1361,"o":"m 1214 951 q 1294 871 1275 951 q 1268 810 1285 810 q 1288 797 1268 797 q 1188 629 1288 776 q 979 463 1133 546 q 886 342 921 344 q 706 375 804 342 l 725 503 q 383 589 383 572 l 383 650 l 390 656 q 819 582 775 603 l 872 696 l 939 669 q 919 556 939 622 l 939 549 q 1221 783 1076 586 q 1119 864 1119 783 q 1207 951 1119 943 l 1214 951 m 1007 389 q 1328 328 1328 342 l 1328 301 l 1321 294 l 1013 342 l 893 282 l 632 321 l 511 261 l 317 321 l 63 275 l 56 275 l 56 301 q 317 361 56 319 l 504 308 q 625 361 524 308 l 879 321 l 1007 389 m 1026 315 q 1347 247 1347 267 l 1347 242 l 1335 221 l 1033 268 l 899 201 l 658 242 l 531 188 l 331 247 l 82 194 l 69 221 l 69 228 q 331 288 69 239 l 524 228 l 644 288 l 893 247 l 1026 315 m 1033 235 q 1361 174 1361 197 l 1361 154 l 1354 147 l 1046 194 l 919 128 l 671 168 l 551 114 l 357 168 l 103 121 l 89 133 l 89 161 l 350 214 l 538 154 l 665 214 l 906 174 q 1033 235 928 174 m 1208 972 q 1277 944 1249 972 q 1306 878 1306 917 q 1277 811 1306 839 q 1208 783 1249 783 q 1140 811 1168 783 q 1111 878 1111 839 q 1140 944 1111 917 q 1208 972 1168 972 z "},"W":{"ha":1140,"x_min":140,"x_max":1097,"o":"m 460 1174 l 471 1174 q 532 1108 524 1174 q 485 1051 532 1069 l 554 875 q 526 704 526 775 l 525 492 l 514 488 q 485 286 492 286 l 486 279 l 257 247 q 171 182 179 182 l 140 214 l 140 217 q 306 388 300 369 q 393 531 392 522 q 349 692 393 571 l 346 692 q 267 621 268 633 q 235 447 240 447 q 193 454 193 449 q 211 658 206 658 q 322 775 317 775 q 378 788 378 782 q 346 879 346 865 l 346 882 l 397 899 l 453 797 l 456 797 l 489 882 l 436 1049 l 442 1053 q 397 1108 397 1076 q 460 1174 410 1174 m 775 1004 q 815 986 815 994 l 775 821 l 811 739 l 815 739 q 869 843 856 833 q 918 824 918 828 l 892 729 q 967 708 967 724 l 1071 604 l 1097 408 q 1053 401 1079 401 l 1010 582 l 929 639 q 889 443 889 518 l 856 214 l 874 22 l 876 19 q 828 13 853 13 q 778 247 821 13 l 778 357 l 699 310 l 782 126 l 732 103 l 596 339 q 753 464 613 342 l 760 510 q 726 749 740 749 l 706 808 l 775 1004 m 738 1000 l 739 997 l 742 997 l 713 850 l 608 850 q 576 997 603 850 l 578 1000 l 738 1000 m 608 972 l 625 879 l 692 879 l 708 972 l 608 972 m 356 322 l 411 335 l 408 382 l 356 322 m 471 1181 q 525 1160 503 1181 q 547 1108 547 1139 q 525 1057 547 1079 q 471 1035 503 1035 q 415 1057 438 1035 q 393 1108 393 1079 q 415 1160 393 1139 q 471 1181 438 1181 z "},"X":{"ha":1100,"x_min":39,"x_max":1044,"o":"m 650 1150 l 661 1150 q 744 1072 725 1150 l 744 1056 q 650 972 744 993 q 567 1061 590 972 l 567 1072 q 650 1150 586 1150 m 589 1067 q 661 1000 599 1000 q 722 1067 713 1000 q 650 1128 708 1128 q 589 1067 607 1128 m 244 1061 q 400 889 400 913 q 439 761 400 761 l 439 767 q 461 828 447 828 l 500 828 q 522 711 517 828 l 633 683 q 700 856 678 856 q 733 839 733 850 l 694 667 q 1044 578 1044 594 l 1039 572 l 1039 567 l 689 650 l 683 617 q 1033 528 1033 540 l 1022 517 q 600 611 632 611 l 539 611 q 478 533 518 597 l 1017 406 l 1017 389 q 461 517 979 389 l 444 483 l 1006 350 l 1006 344 l 994 333 l 428 467 q 372 267 399 440 q 139 67 156 67 l 106 106 l 106 111 l 289 311 l 289 389 l 167 267 l 161 267 l 39 539 l 83 556 q 183 400 132 499 l 261 500 l 261 506 l 139 533 l 139 544 l 144 550 l 144 556 l 278 522 l 294 556 q 150 600 150 582 l 167 606 l 306 578 l 306 583 l 339 678 l 333 678 q 167 728 167 715 l 172 733 l 172 739 l 339 700 l 339 733 q 178 778 178 764 l 189 789 l 339 756 l 333 811 l 333 878 l 217 1028 l 217 1033 l 244 1061 z "},"Y":{"ha":1494,"x_min":35,"x_max":1457,"o":"m 396 1111 q 557 939 524 989 l 557 933 l 451 794 l 474 733 q 618 506 474 650 q 657 189 647 506 q 613 172 654 172 l 601 172 q 557 406 588 182 q 490 494 557 457 l 513 322 l 507 317 l 218 389 l 229 439 l 413 422 q 268 711 376 547 q 151 656 243 711 l 79 472 l 35 483 l 90 689 q 285 822 235 813 l 257 906 q 313 939 283 939 l 363 861 q 474 944 421 861 l 368 1078 l 368 1083 l 396 1111 m 1068 1000 q 1190 850 1135 881 l 1263 922 l 1268 922 l 1307 883 l 1307 878 l 1268 806 q 1429 653 1349 750 q 1457 439 1446 683 l 1440 422 l 1418 422 q 1389 604 1407 422 q 1268 694 1379 626 l 1190 611 q 924 156 1110 515 l 879 172 l 879 183 q 1007 539 968 394 l 924 617 l 918 617 q 790 450 807 460 l 746 478 l 746 483 q 901 739 878 724 l 1024 661 l 1096 806 l 1046 906 l 1040 906 l 935 822 l 929 822 l 901 850 l 901 856 l 1057 1000 l 1068 1000 m 713 733 q 779 667 764 733 l 779 661 q 729 589 779 613 l 724 589 q 640 639 661 589 l 640 667 q 713 733 640 717 z "},"Z":{"ha":1743,"x_min":139,"x_max":1647,"o":"m 1514 839 l 1514 831 l 1500 754 l 1500 747 q 1592 713 1532 747 l 1578 642 l 1472 649 q 1444 572 1461 649 l 1240 649 l 1233 649 q 1346 522 1294 567 l 1346 515 l 1297 508 l 953 508 l 953 501 q 1465 165 1218 342 l 1578 172 q 1647 115 1597 172 l 1647 108 l 1521 94 l 139 993 l 139 1007 l 201 986 q 875 557 238 986 l 875 579 q 1093 621 875 594 q 875 817 1028 693 q 967 950 875 844 l 1283 888 l 1290 888 l 1058 1126 q 1086 1168 1058 1154 l 1514 839 z "},"[":{"ha":881,"x_min":33,"x_max":833,"o":"m 128 1074 l 150 1074 q 217 1007 217 1057 l 217 985 q 150 918 200 918 l 128 918 q 56 1001 71 918 q 128 1074 78 1074 m 822 924 q 833 863 833 901 q 528 746 833 847 q 628 524 588 524 l 689 446 q 744 324 744 399 l 756 51 l 728 46 l 694 46 q 644 346 681 46 l 572 407 l 594 207 l 589 207 l 267 290 l 283 346 l 483 324 q 317 657 453 451 l 133 557 q 33 785 33 767 l 78 807 l 156 663 l 167 663 q 339 774 286 761 l 339 779 l 311 879 l 372 907 l 428 813 l 822 924 z "},"\\":{"ha":1111,"x_min":63,"x_max":1075,"o":"m 565 949 q 732 869 610 932 q 817 797 801 883 l 932 843 l 960 782 q 881 714 946 757 l 874 714 q 939 593 874 694 l 1068 608 l 1068 600 l 1075 593 l 1075 556 q 910 501 1075 532 q 831 585 888 501 q 644 501 678 535 q 1018 306 758 483 q 989 251 1018 286 q 867 313 961 251 q 500 403 815 365 l 300 244 l 63 457 l 106 501 l 278 374 l 681 797 l 681 804 l 579 858 l 335 804 l 321 850 q 565 949 321 881 z "},"]":{"ha":1211,"x_min":47,"x_max":1192,"o":"m 714 972 l 769 950 l 731 850 q 992 639 790 811 q 1008 611 1004 639 l 964 578 l 947 583 l 881 550 l 908 506 l 1075 511 l 1192 511 l 1192 506 l 1069 433 l 836 489 l 753 422 l 647 439 l 619 428 l 619 417 l 742 400 l 847 456 q 1114 406 1107 415 l 1114 394 l 1103 378 q 836 417 892 417 q 742 367 836 406 l 542 400 l 425 350 l 269 400 l 58 361 l 53 367 l 53 383 q 275 433 53 399 l 436 389 q 542 433 522 433 l 547 433 l 553 428 l 592 444 l 592 450 l 536 461 l 436 411 q 258 461 388 411 l 186 439 l 47 489 l 47 500 l 336 506 l 431 506 q 531 811 467 733 l 592 933 l 603 933 l 658 900 l 714 972 m 736 744 l 675 650 l 681 650 l 786 678 q 864 578 843 590 q 919 611 919 603 l 736 744 m 603 511 l 603 506 l 703 506 q 792 550 731 506 l 747 589 l 603 511 m 792 511 l 792 506 l 836 506 l 819 522 l 792 511 m 853 394 l 1125 350 l 1125 328 l 1119 322 l 1119 317 l 858 356 l 764 300 l 547 333 l 436 289 l 286 339 l 75 294 l 64 328 l 286 372 l 442 322 l 547 372 l 764 339 q 853 389 764 349 l 853 394 m 881 328 q 1142 278 1142 294 l 1142 267 l 1131 256 l 875 294 l 769 239 l 558 272 q 453 228 474 228 l 297 272 l 86 233 l 81 239 l 81 256 q 292 306 81 276 l 297 311 l 458 261 l 558 311 q 781 278 735 278 q 881 328 781 292 z "},"a":{"ha":1340,"x_min":100,"x_max":1153,"o":"m 647 1119 q 715 1028 669 1076 l 719 1028 l 788 1076 l 1024 961 l 921 796 q 1046 406 964 711 l 1051 400 l 1149 389 l 1146 363 l 1144 311 q 1092 301 1093 311 q 1153 164 1100 300 l 1103 139 l 1093 139 l 989 308 l 760 304 q 765 658 753 336 l 760 658 l 319 268 q 232 226 317 247 l 135 243 l 110 246 l 100 257 q 197 292 122 301 q 301 338 268 283 l 447 471 l 417 481 l 418 490 q 551 918 533 764 l 619 967 l 572 1092 q 644 1119 624 1119 l 647 1119 m 860 933 l 858 928 l 889 872 l 910 917 l 860 933 m 628 815 q 493 507 619 750 l 733 699 l 632 814 l 628 815 m 886 497 l 878 472 l 871 411 l 926 404 l 928 410 l 892 497 l 886 497 m 317 242 q 357 190 361 226 l 356 175 q 311 149 339 146 l 290 151 q 265 201 261 174 q 317 242 268 229 z "},"b":{"ha":1326,"x_min":0,"x_max":1278,"o":"m 344 956 q 439 928 439 940 l 394 828 q 617 706 496 828 q 822 622 661 657 l 1206 517 q 1133 400 1151 400 q 689 600 729 590 l 494 506 l 389 561 l 367 456 q 628 278 624 300 l 717 44 q 689 6 703 8 q 494 239 518 229 l 361 311 l 311 44 l 17 0 q 0 39 0 21 l 0 50 l 222 128 q 183 356 211 356 q 139 689 158 356 q 228 850 193 850 l 344 956 m 1228 800 l 1256 800 l 1278 778 l 1278 756 l 1250 728 l 1244 728 q 1206 767 1206 728 l 1206 778 l 1228 800 m 367 744 l 483 583 l 633 622 l 633 633 l 528 700 q 367 744 475 744 z "},"c":{"ha":1050,"x_min":64,"x_max":972,"o":"m 526 1111 l 574 1111 q 586 1033 586 1111 l 586 1004 l 592 982 l 789 1038 q 972 935 808 1038 l 956 888 q 806 965 940 888 q 703 892 703 901 l 767 610 l 750 417 l 933 142 l 933 133 l 882 113 l 621 386 l 621 408 l 617 460 q 385 374 385 385 q 313 113 319 113 q 274 133 274 126 l 282 413 q 506 579 488 551 l 518 601 q 411 832 424 824 l 94 994 q 64 1021 64 994 l 64 1029 q 90 1046 72 1046 q 111 1013 111 1046 l 115 1013 q 128 1025 115 1025 l 399 926 q 475 978 475 939 q 526 1111 517 1103 z "},"d":{"ha":1490,"x_min":104,"x_max":1335,"o":"m 835 935 q 883 907 878 919 l 842 813 q 1064 781 1008 775 l 1168 790 l 1269 890 l 1275 892 q 1335 797 1289 893 l 1335 786 q 1314 733 1335 754 l 1168 735 l 988 711 l 832 700 q 806 675 822 676 q 701 715 728 696 l 699 799 l 693 803 l 688 803 l 681 701 q 900 629 886 642 l 901 624 l 860 586 l 854 586 q 608 644 611 636 l 606 728 l 604 733 l 599 732 l 589 614 l 657 610 l 658 599 q 497 471 554 557 q 381 364 443 369 q 206 278 376 354 l 190 315 q 375 469 375 444 l 417 557 l 415 563 l 324 475 q 104 497 106 486 q 132 550 119 547 l 310 568 q 500 717 472 714 q 594 776 581 725 l 632 847 l 744 836 q 835 935 824 935 m 1224 803 l 1225 781 l 1250 760 l 1256 761 q 1285 797 1289 764 l 1283 808 q 1254 828 1281 819 q 1224 803 1222 813 z "},"e":{"ha":1054,"x_min":178,"x_max":972,"o":"m 557 1111 l 635 1111 q 667 960 650 1111 l 671 960 q 850 896 751 960 q 972 822 961 840 q 836 631 954 808 l 831 631 l 776 654 l 776 667 q 872 804 872 793 l 731 836 l 713 667 q 886 558 886 574 l 890 138 l 886 133 l 836 133 q 808 457 821 133 l 571 571 l 379 435 q 242 69 265 106 l 178 88 q 269 513 260 497 q 429 686 429 669 l 429 846 l 406 840 l 329 840 q 297 832 297 839 l 379 667 l 356 654 l 342 654 l 178 882 l 178 892 l 443 974 l 535 974 l 543 1101 l 557 1111 z "},"f":{"ha":1633,"x_min":0,"x_max":1608,"o":"m 665 872 l 774 813 l 986 800 l 1074 749 l 1201 782 l 1213 781 l 1260 718 l 1178 611 q 1572 376 1279 479 q 1608 361 1571 365 l 1608 356 q 1542 325 1606 346 q 1181 471 1240 406 l 1072 536 l 968 550 q 1136 388 1001 488 l 1135 382 l 1063 381 q 864 571 939 450 l 729 646 l 460 531 l 0 690 l 1 696 q 43 763 32 764 l 404 651 l 544 732 l 539 733 l 339 706 q 101 811 101 797 l 131 863 l 350 788 l 665 872 z "},"g":{"ha":1279,"x_min":33,"x_max":1225,"o":"m 488 1057 l 531 1057 l 531 1051 q 292 704 349 911 l 272 607 l 740 625 l 758 618 l 758 625 l 513 1008 l 513 1026 l 525 1026 q 801 613 775 638 q 850 747 836 747 q 918 717 918 731 l 918 600 q 1225 533 1225 561 l 1225 472 l 1213 460 l 979 460 q 906 217 968 460 l 924 156 l 918 150 l 642 150 l 708 321 l 708 393 l 464 94 l 426 94 q 218 528 218 281 l 218 607 l 132 582 l 33 613 l 33 625 l 138 656 l 224 631 l 224 638 q 439 1026 224 810 l 488 1057 m 272 539 l 272 533 q 457 119 272 300 l 708 436 l 708 503 q 690 515 708 515 l 272 539 z "},"h":{"ha":833,"x_min":96,"x_max":694,"o":"m 414 1111 l 426 1111 q 488 1047 476 1111 l 488 1044 q 440 979 488 1007 l 511 799 q 482 597 482 697 l 479 497 l 482 494 l 479 444 l 479 399 l 469 389 q 435 167 447 167 l 210 135 q 125 68 135 68 l 96 103 q 263 288 258 268 l 350 431 q 300 603 350 476 l 297 603 q 221 529 221 539 q 189 346 196 346 q 149 354 149 347 q 172 576 160 576 q 281 693 274 693 l 332 701 l 297 799 q 353 822 311 808 l 408 717 q 443 804 414 718 l 392 979 l 397 986 q 353 1044 369 986 q 414 1111 365 1111 m 689 931 l 694 924 q 663 769 671 769 l 564 769 q 532 926 556 769 l 535 931 l 689 931 m 564 897 l 581 801 l 646 801 l 663 897 l 564 897 m 313 217 l 315 217 l 365 225 l 365 278 l 313 217 z "},"i":{"ha":1578,"x_min":22,"x_max":1549,"o":"m 1208 1019 l 1236 1019 q 1349 893 1326 1019 q 1218 772 1349 793 q 1119 824 1171 772 l 1026 776 l 1031 772 l 1031 763 q 844 669 899 669 q 699 599 758 669 q 596 488 596 533 l 601 488 q 807 357 799 381 l 932 53 l 867 25 l 714 306 l 513 385 q 363 207 383 207 l 46 124 q 22 189 31 143 l 321 300 q 475 628 424 478 q 568 786 485 663 l 447 810 q 242 701 256 701 l 218 749 l 428 889 q 643 865 643 876 q 699 814 688 815 q 774 885 728 850 l 779 885 l 825 838 q 769 758 769 769 l 867 749 l 1013 810 l 1013 804 q 1106 856 1104 847 l 1096 893 q 1208 1019 1119 1019 m 1129 899 l 1129 893 q 1208 804 1147 804 l 1232 804 q 1315 885 1315 824 l 1315 903 q 1218 992 1315 982 l 1213 992 q 1129 899 1144 992 m 1497 838 l 1525 838 l 1549 814 l 1549 786 q 1507 758 1532 758 q 1469 796 1486 758 q 1497 838 1469 819 z "},"j":{"ha":1463,"x_min":46,"x_max":1414,"o":"m 443 769 q 643 668 643 693 q 689 590 675 600 q 788 660 765 660 l 828 607 l 742 517 l 815 479 l 832 483 l 971 488 l 1004 483 q 1078 540 1025 540 l 1090 540 q 1160 463 1143 540 q 1086 385 1144 385 l 1069 385 q 1000 443 1032 385 l 988 443 q 874 414 988 425 q 815 401 874 408 l 689 426 q 483 349 489 358 l 1044 349 l 1126 315 l 1328 315 l 1336 307 l 1336 201 l 1414 164 l 1414 156 l 50 139 l 46 143 l 67 193 l 58 201 l 58 307 l 67 315 l 119 315 q 136 349 125 346 l 258 349 q 468 565 446 565 l 538 622 q 431 688 444 688 l 197 656 q 185 708 185 686 l 443 769 m 83 294 l 83 214 l 1315 214 l 1315 294 l 83 294 z "},"k":{"ha":1150,"x_min":38,"x_max":1111,"o":"m 489 1007 l 493 1007 l 556 967 l 556 958 l 515 907 l 515 903 l 1104 903 l 1111 896 l 1111 881 l 1104 874 l 838 874 l 840 869 l 840 851 q 829 829 840 832 l 744 829 q 611 636 683 749 q 549 669 597 636 l 553 674 l 553 678 l 508 718 l 442 629 l 578 422 l 560 104 l 556 100 l 497 100 l 489 107 l 482 400 l 386 500 q 271 289 285 303 l 78 133 l 75 133 l 38 171 q 215 360 215 347 q 286 614 286 582 l 297 714 l 289 969 l 293 974 l 389 940 l 489 1007 m 356 922 l 356 829 l 360 803 l 364 803 l 367 918 l 364 918 l 360 922 l 356 922 m 567 803 q 607 747 601 747 q 674 829 619 756 l 589 829 l 567 803 z "},"l":{"ha":1058,"x_min":60,"x_max":1003,"o":"m 865 1175 l 892 1175 q 976 1079 958 1175 q 892 997 950 997 l 865 997 q 786 1074 786 1017 l 786 1099 q 865 1175 807 1175 m 79 1004 l 538 876 l 603 985 l 675 953 l 643 832 q 846 706 704 818 l 858 706 l 950 871 q 1003 832 1003 851 l 885 585 l 663 699 l 663 693 q 472 318 511 468 l 708 344 l 728 281 q 342 185 713 268 l 368 414 q 269 261 269 358 q 224 1 242 1 l 185 1 q 151 14 151 1 q 204 426 151 426 q 374 649 374 617 l 419 801 q 60 933 60 918 q 79 1004 60 1004 z "},"m":{"ha":1111,"x_min":139,"x_max":1058,"o":"m 369 1111 q 633 794 519 950 q 824 701 644 776 q 1058 657 1058 671 q 1050 613 1058 628 l 1046 617 q 674 657 817 632 l 674 515 q 604 458 656 492 q 553 167 589 328 l 553 163 l 990 163 l 997 154 l 997 147 l 990 139 l 147 139 l 139 147 l 139 154 l 147 163 l 504 163 l 524 338 l 524 467 l 519 467 l 451 418 l 443 418 l 422 450 l 422 454 l 475 519 q 447 543 460 543 q 354 625 400 606 q 276 835 336 625 l 310 851 q 378 701 324 851 q 507 617 378 678 l 549 633 q 496 843 549 743 q 333 1078 496 869 q 369 1111 333 1090 z "},"n":{"ha":1169,"x_min":63,"x_max":1075,"o":"m 189 1108 l 189 1115 l 269 1115 q 915 594 646 1115 q 1008 258 1008 329 l 469 174 l 475 126 l 1068 140 l 1075 133 l 1075 126 l 1022 68 l 542 68 l 482 61 l 415 68 l 76 68 l 63 81 l 63 100 q 122 114 63 114 q 215 299 215 249 l 96 371 l 96 383 l 129 424 l 89 469 l 115 496 l 176 457 l 203 483 l 282 469 l 363 483 l 215 1082 l 189 1108 m 269 1010 l 269 1003 l 449 239 l 456 239 l 456 253 q 336 892 397 746 l 275 1010 l 269 1010 m 256 424 l 269 410 q 308 431 304 410 l 256 424 m 303 364 q 369 121 369 226 l 449 126 l 375 431 q 303 364 311 383 m 275 265 q 176 121 232 176 l 322 121 l 322 126 q 275 265 322 207 m 456 232 l 456 213 l 463 213 l 463 232 l 456 232 z "},"o":{"ha":1528,"x_min":36,"x_max":1472,"o":"m 892 972 l 911 972 q 968 904 954 972 q 944 851 968 882 l 972 718 l 976 718 q 1036 771 1004 771 l 1049 771 q 1097 742 1081 771 l 1117 750 l 1114 763 l 1110 896 l 1169 908 q 1194 794 1194 821 l 1326 824 l 1331 819 l 1299 593 l 1294 593 q 1125 657 1243 593 q 1117 669 1117 657 l 1121 682 l 1129 682 l 1246 642 l 1267 786 q 1235 714 1235 786 l 1231 682 l 1110 718 l 1110 699 q 1089 650 1110 672 l 1279 561 l 1286 576 l 1294 576 l 1290 476 l 1290 415 q 1411 121 1329 294 q 1472 -7 1471 13 l 1424 -28 q 1169 363 1314 157 q 1072 263 1072 283 l 1032 -7 q 968 4 968 -4 l 985 318 l 1142 504 q 1069 621 1081 621 q 919 650 919 639 q 883 839 893 839 q 835 904 835 857 l 835 908 q 892 972 847 972 m 843 904 q 900 847 854 847 q 947 896 947 861 l 947 908 q 900 956 938 956 q 847 904 847 951 l 843 904 m 339 940 q 399 919 399 935 l 396 779 l 411 775 q 464 803 431 803 q 532 746 510 803 l 576 742 l 674 824 l 682 824 q 726 803 706 803 l 726 799 q 572 669 603 669 l 432 650 l 367 532 l 524 347 l 540 32 q 476 24 518 24 l 432 315 l 335 396 l 85 4 q 36 32 36 17 q 218 440 218 403 l 218 536 q 178 851 218 618 l 182 856 l 314 826 l 339 940 m 250 811 l 267 686 l 388 726 l 399 690 l 403 690 l 407 694 l 411 694 l 399 726 l 399 739 l 274 694 q 267 767 267 714 l 267 786 q 250 811 267 807 m 424 750 l 424 718 q 464 690 438 690 l 468 690 q 508 735 499 690 q 464 779 500 779 q 424 750 438 779 m 996 706 q 1049 654 1006 654 q 1093 701 1079 654 q 1049 754 1093 736 q 996 706 1013 754 m 242 614 l 226 617 l 226 601 l 303 638 l 303 642 l 299 642 l 242 614 z "},"p":{"ha":881,"x_min":115,"x_max":844,"o":"m 760 1169 l 763 1169 l 844 1049 l 844 1043 l 842 1043 q 796 1056 821 1056 q 639 964 742 1056 q 596 932 632 964 q 688 772 615 908 q 539 669 563 681 l 533 501 q 565 407 533 479 q 654 33 603 313 q 599 14 614 14 q 531 222 582 14 q 446 424 497 329 q 379 307 425 396 q 164 31 325 219 l 158 31 l 115 74 q 233 242 164 156 q 351 493 311 379 l 288 642 q 125 772 188 708 l 125 775 q 215 961 139 819 l 218 961 l 249 926 l 249 918 q 206 801 242 911 q 336 744 303 744 l 361 744 l 361 835 l 367 840 l 429 838 l 431 835 q 539 926 539 921 l 531 947 l 565 969 l 569 969 q 581 956 581 964 l 582 956 q 742 1089 710 1054 q 763 1156 763 1118 l 763 1164 l 760 1167 l 760 1169 m 433 813 l 446 756 l 449 756 q 596 801 494 756 l 599 801 q 551 899 578 856 l 433 813 z "},"q":{"ha":1571,"x_min":22,"x_max":1510,"o":"m 642 972 l 718 875 q 793 922 781 922 l 954 610 l 1004 367 l 1510 364 l 1510 358 l 1317 288 l 1232 314 q 1013 250 1036 250 l 993 250 l 872 314 l 788 300 l 788 297 l 846 274 l 875 276 l 1007 215 l 1211 276 l 1492 221 q 1481 182 1486 182 l 1208 235 q 1001 174 1015 174 l 869 235 l 601 192 l 469 261 l 136 208 l 128 247 q 475 303 225 267 l 607 232 q 776 264 776 258 l 724 288 l 589 264 l 481 351 l 181 282 q 22 372 33 363 l 22 375 l 72 372 l 393 372 l 435 431 l 335 475 q 314 467 324 467 l 263 515 q 292 542 276 542 l 565 779 q 621 819 621 811 l 572 943 q 642 972 629 972 m 372 501 l 372 499 q 458 463 443 463 l 554 592 l 694 551 l 694 554 l 613 679 q 372 501 439 556 m 592 481 l 533 422 l 533 419 l 647 369 l 797 369 l 797 372 l 592 481 m 501 393 l 481 369 l 554 369 l 554 372 l 501 393 m 454 224 l 589 153 l 856 197 l 993 136 l 1192 197 l 1472 142 q 1463 104 1472 104 l 1194 157 l 986 92 l 849 153 l 581 110 l 451 182 l 118 131 q 110 168 113 138 l 454 224 m 440 142 l 572 71 l 840 115 l 972 54 l 1174 115 q 1454 60 1415 71 q 1446 22 1454 33 l 1176 75 l 969 13 l 835 75 l 565 31 l 432 101 l 101 49 q 92 86 96 56 q 440 142 92 92 z "},"r":{"ha":972,"x_min":238,"x_max":865,"o":"m 443 1044 l 467 1044 q 524 979 510 1044 l 524 975 q 467 908 510 908 l 450 908 q 385 979 396 908 q 443 1044 400 1044 m 714 986 q 761 951 736 978 l 761 947 l 617 726 q 640 583 625 644 l 861 629 l 865 626 l 865 622 q 857 592 863 592 l 861 588 l 819 339 l 768 347 l 772 444 l 772 525 q 513 371 651 481 q 458 304 458 344 l 432 239 q 493 57 486 97 l 493 53 l 454 40 l 365 239 l 393 367 q 376 389 383 389 q 319 324 319 347 q 276 157 283 157 q 238 172 238 157 q 276 393 261 393 l 331 447 l 331 451 l 261 482 l 268 540 l 272 540 q 369 521 300 540 q 528 588 519 576 l 528 735 q 610 854 528 768 q 714 986 610 864 z "},"s":{"ha":1210,"x_min":43,"x_max":1188,"o":"m 983 818 q 1063 674 1015 818 q 1024 375 1046 375 q 989 171 999 375 l 1188 101 l 1188 92 q 1172 57 1188 75 l 908 96 l 864 335 l 744 271 q 571 61 724 263 q 546 96 558 64 l 625 306 q 860 465 629 325 l 839 560 l 744 510 l 571 594 q 172 415 535 585 q 108 519 156 415 l 451 614 q 635 689 596 644 q 835 799 743 799 l 794 888 q 879 913 794 900 l 983 818 m 108 753 l 108 743 q 72 708 108 708 l 68 708 l 43 733 l 43 753 l 63 774 l 88 774 l 108 753 m 860 724 q 715 683 763 724 l 621 624 l 621 614 l 754 579 l 860 724 z "},"t":{"ha":1150,"x_min":49,"x_max":1143,"o":"m 999 972 l 1015 956 l 1015 939 q 815 717 950 825 l 982 533 l 976 394 l 976 217 q 1121 56 976 186 l 1143 28 l 1121 6 q 710 217 846 197 q 665 233 689 233 q 815 472 665 254 q 693 556 707 556 l 593 456 l 460 461 q 432 422 460 438 l 415 422 l 376 467 l 60 467 l 49 478 l 54 483 l 60 483 q 393 511 393 483 q 410 533 396 533 l 438 533 q 460 500 460 525 q 593 556 593 519 q 654 678 628 606 l 571 789 q 632 811 571 803 l 721 744 l 726 744 q 999 972 861 813 m 788 272 l 871 222 l 876 222 l 871 356 l 788 272 z "},"u":{"ha":1354,"x_min":90,"x_max":1303,"o":"m 1092 1118 q 476 711 985 1035 l 542 586 l 546 586 q 732 701 696 701 l 732 707 l 707 792 l 761 826 l 826 742 q 1228 857 876 767 l 1232 851 q 1188 786 1232 786 l 922 676 l 997 440 q 1182 315 1182 347 l 1303 31 q 1238 0 1257 0 q 1082 275 1097 265 l 957 321 q 811 75 831 86 l 531 56 l 521 110 l 776 171 l 838 365 q 701 582 717 582 l 517 481 q 431 676 431 660 l 106 467 l 90 486 q 415 696 113 514 l 415 701 l 411 707 l 411 711 l 456 736 l 471 732 q 1088 1118 1061 1118 l 1092 1118 z "},"v":{"ha":1150,"x_min":28,"x_max":1111,"o":"m 1017 1028 l 1044 994 q 883 856 899 860 l 789 878 l 789 861 l 889 839 l 1061 983 l 1094 944 l 1094 939 l 906 756 l 739 772 q 622 606 660 679 q 428 350 622 568 l 394 378 q 544 633 481 497 l 522 667 l 433 622 q 411 672 411 651 l 478 744 l 467 778 q 733 928 590 881 l 767 928 l 856 906 l 1017 1028 m 322 367 l 428 311 l 633 344 l 733 294 l 894 344 q 1111 294 1111 307 l 1111 278 l 1106 272 l 1106 267 l 894 311 l 733 261 l 633 311 l 417 278 q 311 328 328 328 l 61 289 l 56 294 l 56 322 l 322 367 m 311 300 l 417 250 l 617 283 l 722 233 l 878 283 q 1100 233 1100 244 l 1100 228 l 1089 206 q 872 244 915 244 l 717 200 l 611 244 l 411 211 l 300 267 l 50 228 l 39 244 l 39 250 q 311 300 39 271 m 300 239 q 406 189 388 189 l 606 222 l 711 172 l 867 222 l 1083 178 l 1083 156 l 1072 144 l 861 183 l 700 139 l 600 183 l 394 150 l 289 206 l 33 167 l 28 172 l 28 189 q 300 239 28 208 z "},"w":{"ha":972,"x_min":0,"x_max":839,"o":"m 406 1078 q 583 972 583 989 l 611 900 q 717 933 688 933 l 722 933 l 744 872 l 650 817 q 706 706 674 746 l 761 706 q 822 689 822 706 l 822 656 q 661 628 822 640 l 661 622 q 839 589 839 606 l 839 539 l 344 567 q 328 317 339 381 l 317 317 l 0 583 q 50 639 36 633 l 228 500 l 211 722 q 483 933 360 856 l 383 1000 l 156 983 l 144 1039 l 406 1078 m 400 661 l 650 628 l 650 633 l 589 722 q 400 661 400 678 m 611 433 l 633 433 l 644 422 l 644 344 l 633 328 l 633 11 l 622 0 l 611 11 l 611 328 l 600 344 l 600 422 l 611 433 z "},"x":{"ha":1100,"x_min":139,"x_max":939,"o":"m 256 1111 q 322 1044 306 1111 l 322 1022 q 256 956 322 972 l 233 956 q 161 1028 183 956 q 233 1111 176 1111 l 256 1111 m 922 961 q 939 900 939 961 q 633 783 939 885 l 672 650 q 817 456 672 622 q 861 94 861 456 q 833 83 861 83 l 800 83 q 761 311 785 83 q 678 444 761 396 l 700 244 q 372 328 385 317 l 389 383 l 589 361 q 428 689 556 490 l 428 694 l 239 594 l 139 811 q 183 844 139 828 l 261 700 l 272 700 q 444 811 392 799 l 417 917 l 478 944 l 533 850 l 922 961 z "},"y":{"ha":1015,"x_min":33,"x_max":972,"o":"m 144 1028 l 156 1028 q 172 994 172 1022 l 172 894 l 322 894 q 344 917 322 917 l 383 894 l 650 894 l 694 917 l 706 894 l 833 894 l 833 994 q 850 1028 838 1028 l 861 1028 l 878 1011 l 878 744 l 861 728 l 850 728 q 833 761 833 733 l 833 861 l 728 861 l 728 856 q 789 728 789 744 q 622 600 775 706 l 561 461 q 744 139 639 249 l 800 56 l 756 17 l 750 17 q 494 356 524 268 l 467 394 q 344 72 392 279 q 311 0 322 4 l 256 17 q 372 433 317 336 l 378 467 l 372 628 l 222 728 l 300 861 l 172 861 l 172 761 q 156 728 172 732 l 144 728 l 128 744 l 128 1011 l 144 1028 m 94 994 l 106 994 l 122 978 l 122 778 l 106 761 l 94 761 q 78 822 78 761 l 61 811 l 44 811 l 33 822 l 33 933 l 44 944 l 61 944 l 78 933 q 94 994 78 994 m 900 994 l 911 994 q 928 933 928 994 l 944 944 l 961 944 l 972 933 l 972 822 l 961 811 l 944 811 l 928 822 q 911 761 928 761 l 900 761 l 883 778 l 883 978 l 900 994 m 317 756 q 444 711 417 711 l 467 711 q 500 806 483 806 l 539 806 l 550 794 l 550 700 l 583 700 q 711 756 607 700 l 672 861 l 367 861 q 311 756 356 861 l 317 756 z "},"z":{"ha":1578,"x_min":44,"x_max":1528,"o":"m 422 901 q 771 575 446 901 q 1058 364 879 439 l 1126 450 l 1126 457 l 1036 411 l 847 513 l 847 528 q 1089 714 1068 714 l 1036 776 l 854 692 q 817 746 832 692 l 1021 886 l 1036 886 l 1157 785 q 1247 675 1247 736 q 1346 644 1346 664 l 1346 582 q 1256 558 1346 563 l 1256 418 l 1210 372 q 1346 340 1210 357 q 1528 83 1364 340 l 1513 68 l 1429 68 l 1271 271 l 1232 271 l 1232 263 l 1263 256 l 1263 240 l 1225 193 l 1104 247 l 1096 240 q 839 122 1096 182 l 832 131 l 839 185 q 1013 294 1013 254 l 885 357 l 922 286 q 854 256 922 271 l 786 301 q 733 271 733 286 l 793 286 l 824 247 l 824 232 q 733 154 808 232 q 468 53 733 89 l 446 76 l 446 100 q 468 115 446 115 q 703 256 646 156 l 301 122 l 294 131 l 301 169 q 650 357 307 185 q 363 582 535 511 l 363 481 q 325 388 363 388 q 242 753 310 396 q 514 621 264 753 l 521 621 l 521 629 l 393 815 q 44 979 60 949 l 44 1010 l 51 1018 l 422 901 z "},"|":{"ha":1303,"x_min":68,"x_max":1250,"o":"m 1185 997 q 1250 979 1250 990 q 997 340 997 360 l 946 0 l 385 0 q 340 271 378 0 q 276 439 335 350 l 68 1050 l 71 1054 l 75 1054 q 151 1058 164 1054 q 485 421 454 444 q 560 461 560 454 q 597 631 590 622 l 721 642 q 744 418 726 625 l 878 418 l 1182 997 l 1185 997 z "}}}
